<svg width="69" height="69" viewBox="0 0 69 69" fill="none" xmlns="http://www.w3.org/2000/svg">
<path fill-rule="evenodd" clip-rule="evenodd" d="M6.61203 68.6818C3.31381 68.6818 0.623413 65.9084 0.623413 62.5159C0.623413 59.0535 3.31381 56.3567 6.61203 56.3567C7.89137 56.3567 9.10464 56.7038 10.1154 57.3986V56.4968H12.9392V68.4003H10.1154V67.6384C9.10464 68.2641 7.96046 68.6818 6.61203 68.6818ZM3.38355 62.5159C3.38355 64.3181 4.93172 65.9084 6.68091 65.9084C8.5644 65.9084 10.1154 64.3181 10.1154 62.5159C10.1154 60.648 8.5644 59.0535 6.68091 59.0535C4.93172 59.0535 3.38355 60.648 3.38355 62.5159ZM19.9394 68.6818C16.6401 68.6818 13.8811 65.9084 13.8811 62.5159C13.8811 59.0535 16.6401 56.3567 19.9394 56.3567C21.2181 56.3567 22.3616 56.7038 23.3732 57.3986V52.4098H26.2662V68.4003H23.3732V67.6384C22.3616 68.2641 21.2181 68.6818 19.9394 68.6818ZM16.6401 62.5159C16.6401 64.3181 18.1885 65.9084 20.075 65.9084C21.8238 65.9084 23.3732 64.3181 23.3732 62.5159C23.3732 60.648 21.8238 59.0535 20.075 59.0535C18.1885 59.0535 16.6401 60.648 16.6401 62.5159ZM27.6785 68.4003H30.5047V56.4968H27.6785V68.4003ZM27.6785 55.3875H30.5047V52.4098H27.6785V55.3875ZM41.1422 52.4098H43.9686V68.4003H41.1422V67.6384C40.2012 68.2641 38.9864 68.6818 37.7111 68.6818C34.4086 68.6818 31.7199 65.9084 31.7199 62.5159C31.7199 59.0535 34.4086 56.3567 37.7111 56.3567C38.9864 56.3567 40.1321 56.7038 41.1422 57.3986V52.4098ZM34.4799 62.5159C34.4799 64.3181 36.0248 65.9084 37.7766 65.9084C39.5923 65.9084 41.1422 64.3181 41.1422 62.5159C41.1422 60.648 39.5923 59.0535 37.7766 59.0535C36.0248 59.0535 34.4799 60.648 34.4799 62.5159ZM50.9669 68.6818C47.6678 68.6818 44.91 65.9084 44.91 62.5159C44.91 59.0535 47.6678 56.3567 50.9669 56.3567C52.2499 56.3567 53.3917 56.7038 54.3359 57.3986V56.4968H57.229V68.4003H54.3359V67.6384C53.3917 68.2641 52.2499 68.6818 50.9669 68.6818ZM47.7358 62.5159C47.7358 64.3181 49.2876 65.9084 51.1059 65.9084C52.8512 65.9084 54.3359 64.3181 54.3359 62.5159C54.3359 60.648 52.8512 59.0535 51.1059 59.0535C49.2876 59.0535 47.7358 60.648 47.7358 62.5159ZM63.5662 68.6818C66.3934 68.6818 68.7509 67.5005 68.7509 64.5899C68.7509 62.9307 67.6065 61.8234 65.7884 61.34C63.9028 60.8559 61.4799 60.9238 61.4799 59.6797C61.6153 58.847 62.355 58.64 63.4992 58.64C65.2521 58.64 65.3171 59.6095 65.3864 60.2308H68.2778C68.0757 57.9501 66.2572 56.3567 63.366 56.3567C60.3338 56.3567 58.5844 58.0212 58.5844 60.1671C58.5844 61.4106 59.1888 62.5159 60.2025 63.0711C60.9423 63.4181 61.9498 63.6939 63.163 63.9026C64.4411 64.0392 65.5893 64.1766 65.6543 65.0775C65.6543 65.7019 65.0457 66.4644 63.7011 66.4644C61.7498 66.4644 61.3439 65.3555 61.3439 64.5899H58.3166C58.3847 67.0142 60.3338 68.6818 63.5662 68.6818ZM43.4979 29.6387C43.6335 28.0464 43.7678 26.5236 43.7678 24.7246C43.7678 15.0367 39.5284 4.99874 34.8817 0.5C30.1705 4.99874 25.9973 15.0367 25.9973 24.7246C25.9973 26.5236 25.9973 28.0464 26.2662 29.6387H43.4979ZM24.7193 29.6387C23.978 28.3262 22.9664 27.0781 21.9605 25.8313C16.1696 18.8427 7.21899 14.5478 1.09412 14.1343C0.691213 18.6333 2.03512 24.1022 4.72789 29.6387H24.7193ZM34.8817 49.1565C36.293 47.6348 37.7766 45.5573 39.1231 42.9287H30.5736C31.9886 45.5573 33.3359 47.6348 34.8817 49.1565ZM30.1053 48.7419C30.1705 47.2211 30.1705 45.1458 29.8986 42.9287H16.1696C21.0201 46.5974 26.2662 48.4635 30.1053 48.7419ZM68.7384 14.1343C62.5448 14.5478 53.6611 18.8427 47.8742 25.8313C46.7963 27.0781 45.8549 28.3262 45.1125 29.6387H65.0338C67.7261 24.1022 69.138 18.6333 68.7384 14.1343ZM53.5283 42.9287H39.9298C39.5284 45.1458 39.5284 47.2211 39.5284 48.7419C43.4979 48.4635 48.7493 46.5974 53.5283 42.9287ZM59.6517 37.8078H10.0467C10.8538 38.7774 11.7277 39.673 12.6024 40.2976H56.8937C57.9649 39.673 58.9797 38.7774 59.6517 37.8078ZM63.691 32.2712C63.2861 33.101 62.5448 34.2767 61.8701 34.9666H7.82659C7.42066 34.4139 6.47772 33.1702 6.0733 32.2712H63.691Z" fill="#1F1F21"/>
</svg>
