<svg width="69" height="62" viewBox="0 0 69 62" fill="none" xmlns="http://www.w3.org/2000/svg">
<path fill-rule="evenodd" clip-rule="evenodd" d="M37.5186 5.04547C37.4922 4.91197 37.4736 4.77695 37.4643 4.63739C37.3245 2.71833 38.8402 1.05413 40.8514 0.917599C42.8656 0.784099 44.6097 2.23136 44.7494 4.15042C44.8908 6.07099 43.3766 7.73519 41.3639 7.8702C41.2365 7.87931 41.1092 7.88082 40.9865 7.87627C40.9057 7.89599 40.856 7.90661 40.7862 7.96578C40.5796 8.27374 41.3126 8.21761 40.8141 9.56171C40.8141 9.56171 40.811 9.70886 40.7535 9.85753C40.7163 10.3733 40.5066 11.904 40.4771 12.7217C40.5843 12.8385 40.6138 12.8962 40.6014 13.1814C40.5548 13.5682 40.4616 14.5179 40.3125 15.1277C40.1852 15.6481 39.9615 15.7482 39.7829 15.8741C39.5298 16.9558 39.463 17.8478 38.8123 19.1616C38.7548 20.1552 38.6818 20.4268 38.4629 20.9107C38.438 22.3762 38.5436 22.5916 37.5093 24.9111C37.2422 25.9958 37.4969 26.7452 37.778 27.8709C38.0684 29.0299 38.8682 29.5123 38.9862 30.6971C39.2673 33.49 39.1959 35.3909 38.5685 37.58L39.1167 38.8179C39.7969 39.1152 41.485 39.9299 40.5486 41.2178C41.8671 41.8777 43.858 42.5801 45.4995 43.9197C46.1596 44.4446 46.8584 45.018 47.4843 45.6885C48.677 45.8645 48.5496 45.9571 49.4317 46.4744C52.0299 47.9945 56.1966 51.0103 58.6131 53.1433C59.0293 53.3754 59.1971 53.5423 59.5325 53.7092C59.5853 53.8062 59.5993 53.8275 59.5884 53.8548C59.4719 54.1324 59.475 54.1415 59.3725 54.363C59.503 54.5011 59.7453 54.6285 59.8944 54.7483C60.0264 54.7893 60.0264 54.7271 60.2609 54.674C60.5637 54.944 60.938 55.161 61.0731 55.1488C61.4846 55.0487 61.4132 55.1306 61.7642 54.7605C61.8884 54.6361 62.095 54.7605 62.095 54.7605C62.2285 54.6163 62.505 54.3236 62.8823 54.1142C63.1774 53.9458 63.7489 53.9276 63.7489 53.9276C63.9384 53.9291 63.9027 54.1157 63.8887 54.1764C63.6713 54.2826 63.2162 54.3979 62.9584 54.5784C62.4025 55.1306 61.9645 55.8725 61.9645 55.8725C63.0889 55.7253 63.78 55.9908 64.7133 55.8891C65.2227 55.8618 65.6017 55.8937 66.1374 55.522C66.1374 55.522 66.6515 55.1731 67.1143 54.9865C67.5631 54.8014 67.9871 54.9 68.3846 55.1731C68.6611 55.4735 68.8304 55.475 68.4033 55.8982C68.2542 56.0636 68.0306 56.2472 67.7464 56.5142C67.2525 56.9799 66.5832 57.6034 65.8952 58.1192C65.1932 58.6411 64.3996 59.1098 63.9058 59.3222C62.6541 60.1809 62.9491 59.9563 61.9645 60.8059C61.8434 60.9106 61.5126 61.1002 61.3526 61.2033C60.9644 61.4446 60.8432 61.2428 60.5917 60.7968C60.5917 60.7968 60.4767 60.6314 60.2842 60.2764C60.0776 59.8896 59.9192 59.4451 59.9813 59.4542C59.7515 59.4269 58.7001 58.2512 58.697 58.0009C58.4765 57.9523 57.5307 57.0785 57.4965 56.9116L56.6594 56.2714C55.7012 56.4626 55.4807 55.8937 52.9462 54.1794C52.6589 54.1734 52.2101 54.0247 51.5718 53.5711C50.4303 52.6988 47.6877 50.7221 47.2234 50.4976C46.7233 50.2548 46.127 50.0258 45.762 49.7391C45.2138 49.642 44.9141 49.5873 44.6392 49.5145C44.3581 49.4417 44.1049 49.3461 43.3952 49.2566C42.2413 49.1186 41.0455 48.6635 39.9056 48.1189C39.3652 47.8731 38.8946 47.7502 38.4318 47.5606C37.3882 47.1404 36.4952 46.7611 35.8041 46.6094C35.5386 46.5851 34.2837 46.2256 33.6237 45.8569C33.397 45.7462 33.2634 45.6385 33.1143 45.6066C32.768 45.5308 32.5459 45.6597 32.3906 45.7113C31.5458 46.13 30.7553 46.4926 30.0238 46.8673C29.3436 47.2162 28.7177 47.5742 28.0546 47.9398C27.4567 48.2706 26.7641 48.5816 26.0528 48.9047C26.0528 48.9047 24.0261 49.8741 22.9188 50.2503C21.9591 50.9997 19.9961 52.2938 18.7971 52.9339C18.2039 53.204 17.0516 53.9003 16.5189 54.0566C16.216 54.2887 15.1351 55.0244 14.2888 55.6328C13.6349 56.0985 13.1411 56.4914 13.1411 56.4914C12.7606 56.8176 12.7854 56.9723 12.0633 56.678C11.863 56.8358 11.7092 56.9344 11.5803 57.0239C11.057 57.3849 11.015 57.297 10.824 57.2894C10.4606 57.5897 10.414 57.432 10.0956 57.7779C9.88754 58.0873 10.1019 58.013 9.6608 58.1632C9.56762 58.1966 9.52413 58.3028 9.4527 58.3634C9.09861 58.6426 9.09706 59.4269 8.24912 59.4845C7.75681 59.8183 7.88261 60.2218 7.50833 60.2036C7.53163 60.551 6.8452 61.0577 6.7194 61.0547C5.64006 61.4112 5.56397 60.6527 4.26565 61.217C4.09793 61.2913 3.85255 61.4946 3.52798 61.5538C2.95647 61.6554 2.26693 61.5477 1.84607 61.2367C1.18449 60.7497 0.574156 59.8107 0.574156 59.8107C0.3645 59.3359 0.487188 59.0355 1.14411 58.588C1.41744 58.4211 1.46869 58.2982 1.92838 58.2663C2.15667 58.1829 2.09455 58.3088 2.50299 58.1723C2.73905 58.0904 2.73905 58.148 3.21582 58.1101C3.32298 58.0388 3.47673 58.013 3.68172 57.9493C4.0591 57.831 4.42561 57.7005 4.42561 57.7005C4.42561 57.7005 4.5219 57.6064 4.8853 57.6413C5.19125 57.5215 5.50651 57.344 5.66802 57.2894C5.62609 56.8252 5.67889 56.8464 5.90408 56.6598C6.18362 56.4292 6.23331 56.4671 6.44297 56.6097C6.53149 56.5612 6.57342 56.5445 6.5641 56.4732C6.52994 56.232 6.31407 56.1197 6.3793 55.5873C6.28301 55.3749 6.14013 55.1124 6.17119 54.9531C6.21778 54.7817 6.26127 54.6983 6.36998 54.6437C6.48645 54.586 6.52373 54.6664 6.58585 54.7332C6.69611 54.856 6.78618 55.2186 6.78618 55.2186C6.82501 55.6312 6.95857 56.1622 7.38409 55.8618C7.63568 55.6191 7.68382 54.9729 8.19631 55.1109L8.56127 55.4128C8.87187 55.1367 8.88585 55.1367 9.07221 55.0229C9.07221 55.0229 8.7818 54.7453 9.03649 54.5253C9.21043 54.3782 9.42164 54.2705 9.79436 53.876C10.8209 52.7959 11.3474 52.3165 12.4562 51.4457C14.6692 49.7087 17.1867 48.492 18.7847 47.8867C19.3065 47.2557 19.8159 46.8354 20.9729 46.7308C22.3489 44.5128 24.9843 42.5331 25.5884 42.216C26.0807 41.3635 26.2951 41.456 26.9396 41.2861C27.4489 40.8947 27.5654 40.8947 27.7937 40.4866C28.0158 39.6447 27.2812 37.3964 29.1557 37.2826C29.5533 36.7456 29.4539 36.8745 29.8965 36.3678C29.5967 35.6639 29.4725 35.0723 29.3918 34.5626C29.3762 34.5034 28.6479 34.0134 28.8544 33.3732C28.5454 33.0212 27.9661 32.2005 27.7859 31.8152C27.7021 31.8182 27.6337 31.7909 27.5421 31.7773C27.4474 31.7621 27.3294 31.7667 27.1974 31.756C26.9069 32.4751 26.5886 32.5282 26.0699 32.6875C25.1443 34.5701 24.8181 35.3681 22.1967 36.9246C21.1562 38.0351 20.8238 39.2745 20.8285 39.2548C20.6499 39.6219 20.7135 40.1362 20.8083 40.4108C20.6701 40.8188 20.7073 40.8583 20.7073 40.8583C20.7632 41.013 20.9123 41.2178 21.094 41.2603C21.4093 41.3407 21.7246 41.3271 21.7059 41.6608C21.664 42.0795 21.0878 42.0112 20.816 41.9642C19.7662 41.8049 20.0986 41.1541 19.4277 41.371C18.9152 41.6927 18.7226 42.6378 17.884 42.5149C17.7737 42.4451 17.8079 42.2403 17.8809 42.0886C17.9989 41.8565 18.207 41.6623 18.0843 41.5759C17.5408 41.7397 16.4474 42.0841 16.4474 42.0841C15.9334 42.2191 15.3712 41.9748 15.8759 41.6517C16.112 41.5637 16.4474 41.456 16.8621 41.2027C16.8621 41.2027 17.0749 40.925 16.6649 41.0631C16.2191 41.2163 15.5607 41.3104 15.087 41.2618C15.087 41.2618 14.1071 41.1389 13.9813 41.0646C13.8539 40.9918 13.739 40.702 14.0449 40.7036C14.4332 40.7066 15.4054 40.5989 16.1586 40.4077C16.522 40.2727 17.2131 39.8813 17.6013 39.6978C17.6013 39.6978 18.0222 39.1122 18.2536 38.9969C18.6403 38.5736 18.9664 38.3233 19.3081 37.8879C19.6435 37.2295 19.9883 36.1888 21.0956 34.5747C21.6081 33.8313 22.2433 32.9636 23.0446 32.1914C23.0446 32.1914 23.2512 30.9505 24.2932 30.0676C24.5231 29.5518 24.8725 28.9434 25.2173 28.3806C25.3508 28.1637 25.4782 27.9756 25.6055 27.7708C25.9285 27.2868 26.2671 26.3857 27.525 26.2446C27.525 26.2446 28.0639 25.8654 28.2705 25.5953C28.5935 25.3329 28.5205 24.9248 28.783 24.6366C28.3823 24.2634 27.3558 23.561 27.2564 22.5855C27.1508 21.5524 27.5375 20.6983 28.1928 20.0687C28.9196 19.3739 29.6868 19.028 30.6171 19.0811C31.7803 19.2465 31.9993 19.6136 32.3704 19.9777C32.7261 20.3221 32.8581 20.1006 33.0071 20.5041C33.9824 20.7529 33.9281 20.6437 33.9203 21.3279C34.071 21.5205 34.321 21.7011 34.3179 22.1001C34.6456 21.4492 34.7108 21.3309 35.5867 20.6179C35.7948 20.0369 35.933 19.4665 36.1163 18.887C36.2871 18.3499 36.4983 17.7962 36.6645 17.3821C36.489 16.2079 36.8477 16.0137 37.3261 14.9866C37.2422 14.8456 37.2593 14.8061 37.295 14.571C37.4814 13.8913 37.7718 12.9917 37.9442 12.4062C37.9442 12.4062 38.0016 12.1725 38.2548 12.1558C38.4722 11.414 38.7999 10.032 38.8558 9.75134C39.081 8.97461 38.9365 8.72582 38.7626 8.28891C38.7067 8.14479 38.7331 7.93999 38.6368 7.78373C38.365 7.33014 38.0715 6.74304 37.8727 6.3213C37.7438 6.0543 37.5388 5.04547 37.5388 5.04547C37.3664 4.53119 37.5186 5.04547 37.5186 5.04547Z" fill="black"/>
</svg>
