<svg width="69" height="35" viewBox="0 0 69 35" fill="none" xmlns="http://www.w3.org/2000/svg">
<path fill-rule="evenodd" clip-rule="evenodd" d="M66.2701 1.04C62.9599 3.01556 62.4724 6.50135 61.3252 8.50248C60.4107 10.1022 58.9235 11.2775 57.5923 11.3729C56.5968 11.4471 55.5221 11.2442 54.4516 10.7712C51.8497 9.62406 50.4255 8.14282 50.0889 7.88117C49.39 7.33828 43.9628 1.9792 39.565 1.76102C39.565 1.76102 39.0187 0.66074 38.8815 0.642842C38.5602 0.601081 38.2312 1.29909 37.9943 1.38006C37.7727 1.45335 37.4003 0.625797 37.1761 0.662445C36.9537 0.695683 36.7389 1.52068 36.3077 1.95193C35.9923 2.26301 35.5986 2.24341 35.3898 2.62778C35.3105 2.77096 35.3352 3.01556 35.2466 3.25079C35.0702 3.72124 34.4506 3.76215 34.4506 4.27436C34.448 4.82834 34.9662 4.93317 35.4162 5.32692C35.7673 5.64226 35.8006 5.86044 36.2259 6.01385C36.5889 6.13743 37.1284 5.7326 37.6142 5.87834C38.0122 5.9968 38.394 6.08373 38.4835 6.49538C38.5636 6.87635 38.4784 7.46356 37.9943 7.39538C37.8324 7.37748 37.125 7.13799 36.2565 7.23174C35.2091 7.35021 34.0134 7.69538 33.8966 8.87066C33.8318 9.52605 34.6398 10.2999 35.4205 10.1439C35.9591 10.0374 35.7043 9.39651 35.9966 9.08628C36.3827 8.68912 38.5636 10.4755 40.5903 10.4755C41.4443 10.4755 42.0792 10.2582 42.7099 9.59423C42.7687 9.5431 42.8412 9.43571 42.9315 9.42804C43.0184 9.43571 43.1684 9.52009 43.217 9.55588C44.8491 10.876 46.0841 13.5241 52.0857 13.5547C52.9312 13.559 53.8917 13.9655 54.6766 14.6857C55.3781 15.336 55.7863 16.351 56.1843 17.378C56.786 18.9198 57.8616 20.4198 59.4937 22.0894C59.5823 22.1789 60.9255 23.2297 61.0337 23.3073C61.0508 23.3192 61.1496 23.5561 61.1147 23.6882C61.0755 24.6896 60.9306 27.6001 63.0886 27.7322C63.6153 27.7595 63.478 27.3854 63.478 27.1288C63.4763 26.6226 63.3843 26.118 63.6502 25.599C64.0133 24.8857 62.8789 24.5575 62.913 23.0132C62.936 21.8627 61.9746 22.0595 61.488 21.1826C61.2067 20.6737 60.957 20.4053 60.9741 19.7831C61.084 16.288 60.2352 13.9894 59.8116 13.426C59.48 12.9999 59.2073 12.8312 59.509 12.6343C61.3107 11.4368 61.7181 10.3255 61.7181 10.3255C62.6761 8.061 63.5377 5.99339 64.7249 5.08317C64.9635 4.89482 65.5772 4.43374 65.953 4.25391C67.0618 3.72806 67.6439 3.40931 67.9661 3.09568C68.4749 2.59625 68.8789 1.55477 68.3897 0.924091C67.782 0.145969 66.7329 0.763865 66.2701 1.04Z" fill="black"/>
<path fill-rule="evenodd" clip-rule="evenodd" d="M18.5846 31.8715C18.5846 32.2942 18.2326 32.6351 17.8167 32.6454C17.4025 32.6351 17.0505 32.2942 17.0505 31.8715L17.0522 18.075H12.53V33.2829C12.53 34.0286 13.1317 34.6363 13.8681 34.6363H21.7695C22.511 34.6363 23.1058 34.0286 23.1058 33.2829V18.075H18.588L18.5846 31.8715Z" fill="black"/>
<path fill-rule="evenodd" clip-rule="evenodd" d="M39.7964 18.0746H32.9535H26.1107C25.3002 18.0746 24.6414 18.7377 24.6414 19.5592V34.6368H29.1661V20.807C29.1695 20.3834 29.5112 20.0476 29.9323 20.0476C30.3533 20.0476 30.6925 20.3749 30.7027 20.795V34.6368H35.2087V20.795C35.2146 20.3749 35.553 20.0476 35.9757 20.0476C36.3925 20.0476 36.7385 20.3834 36.741 20.807V34.6368H41.2674V19.5592C41.2674 18.7377 40.6052 18.0746 39.7964 18.0746Z" fill="black"/>
<path fill-rule="evenodd" clip-rule="evenodd" d="M6.48141 27.6459C6.48482 28.1053 6.11408 28.4241 5.71607 28.4241H4.94732V20.048H5.71607C6.11153 20.048 6.48482 20.3752 6.48141 20.8355V27.6459ZM9.54447 18.075H0.428589V34.6363H4.94732V30.4746H9.51549C10.3345 30.4746 10.9967 29.8099 10.9967 28.9815V19.5664C10.9967 18.7423 10.3601 18.075 9.54447 18.075Z" fill="black"/>
<path fill-rule="evenodd" clip-rule="evenodd" d="M48.8535 28.4266H47.3168V20.8133C47.3211 20.3923 47.6654 20.0556 48.0839 20.0556C48.5058 20.0556 48.8424 20.3795 48.8535 20.8014V28.4266ZM51.9003 18.075H44.2708C43.4603 18.075 42.7998 18.738 42.7998 19.5596V34.6363H47.3168V30.478H48.8535V34.6363H53.3714V19.5596C53.3714 18.738 52.7126 18.075 51.9003 18.075Z" fill="black"/>
</svg>
