<svg width="69" height="30" viewBox="0 0 69 30" fill="none" xmlns="http://www.w3.org/2000/svg">
<path fill-rule="evenodd" clip-rule="evenodd" d="M52.4431 2.71057C49.2857 2.71057 47.1639 4.32182 47.1639 6.72015C47.1639 9.00765 49.4336 10.7325 52.4431 10.7325C55.5538 10.7325 57.7266 9.08249 57.7266 6.72015C57.7266 4.32182 55.6033 2.71057 52.4431 2.71057ZM52.442 8.75756C51.123 8.75756 50.0498 7.83637 50.0498 6.70379C50.0498 5.58057 51.123 4.66662 52.442 4.66662C53.7564 4.66662 54.8259 5.58057 54.8259 6.70379C54.8259 7.83637 53.7564 8.75756 52.442 8.75756Z" fill="#1F1F21"/>
<path fill-rule="evenodd" clip-rule="evenodd" d="M41.7993 2.83214H39.8988V4.90331L41.1868 4.90704C42.2336 4.90704 43.0857 5.68284 43.0857 6.63683C43.0857 7.80874 41.9836 8.37829 41.2386 8.39402H38.8835V0.681763H35.9644V10.4689H41.2183C43.5412 10.4689 46.0282 8.96373 46.0282 6.72319C46.0282 4.28744 43.878 2.83214 41.7993 2.83214Z" fill="#1F1F21"/>
<path fill-rule="evenodd" clip-rule="evenodd" d="M15.4837 6.65164C15.4837 5.68319 16.3939 4.89508 17.5121 4.89508H19.8237L17.9577 7.56583H20.7456L22.6222 5.04952V2.83789L17.0526 2.84337C14.6232 2.84337 12.6472 4.55385 12.6472 6.65585C12.6472 8.75816 14.6232 10.4688 17.0524 10.4688H22.6398V8.40756H17.5121C16.3939 8.40756 15.4837 7.61969 15.4837 6.65164Z" fill="#1F1F21"/>
<path fill-rule="evenodd" clip-rule="evenodd" d="M7.17581 0.681885H0.0519409V10.4687H2.88187V2.81701L6.55308 2.81987C7.5599 2.82106 8.63566 3.2805 8.63566 4.56721C8.63566 5.55108 7.82676 6.29779 6.6938 6.29779L3.8635 6.29652V8.33599H5.84702C7.551 8.3951 8.30422 9.06531 8.3152 10.5089V12.6017H11.2843V9.81544C11.2843 8.33869 10.0649 7.5884 8.89096 7.33552C10.7351 6.80077 11.6426 5.57149 11.6426 4.08163C11.6426 1.98171 9.32408 0.681885 7.17581 0.681885Z" fill="#1F1F21"/>
<path fill-rule="evenodd" clip-rule="evenodd" d="M65.6118 6.39297C67.5766 5.86465 68.1367 4.94156 68.1441 3.10635V2.82384H65.2579V3.23791C65.2579 4.46767 64.6486 5.34857 63.296 5.34857L61.923 5.3492V0.681885H58.993V10.4687H61.923V7.41727H62.9741C64.4312 7.41727 65.3215 8.1369 65.3215 9.27108V10.4687H68.2338V9.3533C68.2338 7.89085 67.4757 6.83453 65.6118 6.39297Z" fill="#1F1F21"/>
<path fill-rule="evenodd" clip-rule="evenodd" d="M26.8636 6.65164C26.8636 5.68319 27.7738 4.89508 28.892 4.89508H31.2036L29.3377 7.56583H32.1258L34.002 5.04952V2.83789L28.4326 2.84337C26.0032 2.84337 24.027 4.55385 24.027 6.65585C24.027 8.75816 26.0032 10.4688 28.4324 10.4688H34.0197V8.40756H28.892C27.7738 8.40756 26.8636 7.61969 26.8636 6.65164Z" fill="#1F1F21"/>
<path fill-rule="evenodd" clip-rule="evenodd" d="M43.7061 20.9437C51.2002 18.3709 55.8671 16.8888 68.233 14.3116C61.522 14.6916 46.6654 15.5668 36.4277 17.2802C36.4277 17.2802 43.547 20.8637 43.7061 20.9437Z" fill="#1F1F21"/>
<path fill-rule="evenodd" clip-rule="evenodd" d="M20.4007 29.4679H30.1957C32.136 26.9481 34.0668 25.7189 36.3152 24.3513C34.6135 23.7877 32.9038 23.243 31.1651 22.7159C24.9093 25.0838 21.4299 28.2612 20.4007 29.4679Z" fill="#1F1F21"/>
<path fill-rule="evenodd" clip-rule="evenodd" d="M22.3372 20.2971C13.6047 22.9758 8.74083 25.884 5.46185 29.4681H16.2831C17.3375 28.2097 21.3522 24.5809 28.8973 22.0573C26.8162 21.4541 23.2013 20.4856 22.3372 20.2971Z" fill="#1F1F21"/>
<mask id="mask0_1399_455" style="mask-type:alpha" maskUnits="userSpaceOnUse" x="2" y="14" width="56" height="16">
<path fill-rule="evenodd" clip-rule="evenodd" d="M2.8913 14.6565H57.3387V30H2.8913V14.6565Z" fill="white"/>
</mask>
<g mask="url(#mask0_1399_455)">
<path fill-rule="evenodd" clip-rule="evenodd" d="M26.8231 14.6565H2.8913C27.0182 18.3968 38.6438 23.2026 57.3387 30.0001C55.7407 28.9762 29.9739 15.9609 26.8231 14.6565Z" fill="#1F1F21"/>
</g>
</svg>
