<svg width="69" height="28" viewBox="0 0 69 28" fill="none" xmlns="http://www.w3.org/2000/svg">
<path fill-rule="evenodd" clip-rule="evenodd" d="M6.88151 22.0939C8.58295 22.0939 9.84328 23.3195 9.84328 24.85V24.8653C9.84328 26.3955 8.5672 27.6364 6.86561 27.6364C5.16432 27.6364 3.90398 26.4108 3.90398 24.8803V24.8653C3.90398 23.3348 5.17995 22.0939 6.88151 22.0939ZM46.8271 22.1854L47.8908 25.2837L48.8515 22.2002H50.4349L48.5917 27.5681H47.2606L46.1498 24.4995L45.0473 27.5681H43.7161L41.8729 22.2002H43.4879L44.4482 25.2837L45.5122 22.1854H46.8271ZM63.2487 22.2002V26.2357H65.9192V27.53H61.7208V22.2002H63.2487ZM58.2001 22.2002V26.2357H60.8706V27.53H56.6721V22.2002H58.2001ZM53.5926 22.1622L55.9401 27.53H54.3017L53.9001 26.5784H51.7731L51.3797 27.53H49.7721L52.1199 22.1622H53.5926ZM39.4788 22.2002V23.4565H36.5566V24.2637H39.2031V25.4284H36.5566V26.2738H39.5181V27.53H35.0438V22.2002H39.4788ZM30.5189 22.2002V24.1954H32.4803V22.2002H34.0084V27.53H32.4803V25.5046H30.5189V27.53H28.9905V22.2002H30.5189ZM27.9876 22.2002V23.4945H26.3334V27.53H24.8055V23.4945H23.1512V22.2002H27.9876ZM20.5054 22.2002V23.4945H17.6224V24.4007H20.2296V25.6263H17.6224V27.53H16.0942V22.2002H20.5054ZM15.2047 22.2002V23.4945H12.3216V24.4007H14.9288V25.6263H12.3216V27.53H10.7937V22.2002H15.2047ZM6.86561 23.4259C6.0309 23.4259 5.47157 24.0809 5.47157 24.85V24.8653C5.47157 25.6342 6.04646 26.304 6.88151 26.304C7.72419 26.304 8.28344 25.6494 8.28344 24.8803V24.8653C8.28344 24.0961 7.70863 23.4259 6.86561 23.4259ZM52.8442 23.9137L52.2222 25.4284H53.4589L52.8442 23.9137ZM1.22626 22.1758L1.42321 24.3513H0.391912L0.194885 22.1758H1.22626ZM68.3767 22.1758L68.18 24.3513H67.1489L67.3456 22.1758H68.3767ZM66.7362 22.1758L66.5391 24.3513H65.508L65.7051 22.1758H66.7362ZM2.8669 22.1758L3.06408 24.3513H2.03271L1.83568 22.1758H2.8669ZM54.0398 5.11168C55.8582 5.11168 56.8959 5.62229 57.7147 6.17577C58.4398 6.66674 59.3012 7.85036 59.3012 8.7903H56.3376C56.0505 8.07448 55.73 7.5163 54.0683 7.5163C52.9217 7.5163 52.433 7.981 52.433 8.44767C52.433 8.95715 52.8409 9.38699 54.1069 9.66269L56.7911 10.367C58.5479 10.8288 59.4008 12.2 59.4008 13.6487C59.4008 14.4549 59.2233 15.4291 58.4457 16.2252C57.8636 16.8204 56.9845 17.606 54.0683 17.606C50.0581 17.606 48.7403 15.1135 48.7403 13.607H51.8628C52.1696 14.7068 52.9369 15.1256 54.4577 15.1256C55.5107 15.1256 56.415 14.7563 56.415 13.9638C56.415 13.2103 55.7607 12.9268 54.9145 12.6994L52.7935 12.1366C51.7709 11.8307 50.9158 11.5856 50.313 11.0825C48.7325 9.76645 48.8478 7.38894 50.5657 6.15271C51.5171 5.46895 52.4926 5.11168 54.0398 5.11168ZM59.8306 16.1936C60.197 16.1936 60.4826 16.4828 60.4826 16.8347C60.4826 17.1861 60.1937 17.4789 59.8273 17.4789C59.4605 17.4789 59.1756 17.1894 59.1756 16.8382C59.1756 16.4867 59.4645 16.1936 59.8306 16.1936ZM30.7586 5.37212L35.2147 17.4626H31.7322L31.0549 15.5714H26.3736L25.7135 17.4626H22.1766L27.0125 5.37212H30.7586ZM39.7337 5.37212L43.9091 11.9478V5.37212H47.2343V17.4626H44.3533L39.75 11.3497V17.4626H36.5505V5.37212H39.7337ZM13.1516 0.363647L17.3942 12.0887L22.1063 0.363647H60.3504L60.0829 3.32146H24.8167L19.1386 17.4626H15.4523C15.4523 17.4626 9.27343 0.467947 9.2492 0.363647H13.1516ZM59.8306 16.2647C59.5001 16.2647 59.2515 16.522 59.2515 16.8382C59.2515 17.1541 59.499 17.4078 59.8273 17.4078C60.1574 17.4078 60.4067 17.1506 60.4067 16.8347C60.4067 16.5188 60.1592 16.2647 59.8306 16.2647ZM59.8684 16.4761C60.0347 16.4761 60.1411 16.5592 60.1411 16.7016C60.1411 16.8134 60.0799 16.8828 59.9914 16.9147L60.1607 17.1595H59.9821L59.8343 16.9393H59.7131V17.1595H59.5601V16.4761H59.8684ZM59.8632 16.609H59.7131V16.8098H59.8669C59.9443 16.8098 59.9858 16.7692 59.9858 16.7104C59.9858 16.6429 59.9388 16.609 59.8632 16.609ZM28.7316 9.36448L27.362 13.3836H30.0839L28.7316 9.36448Z" fill="black"/>
</svg>
