<svg width="45" height="29" viewBox="0 0 45 29" fill="none" xmlns="http://www.w3.org/2000/svg">
<line y1="28" x2="45" y2="28" stroke="black" stroke-width="2"/>
<path d="M26.7002 5.51562V24H22.9043V5.51562H26.7002ZM34.6424 24H30.618L30.6434 21.0293H34.6424C35.6411 21.0293 36.4832 20.805 37.1687 20.3564C37.8543 19.8994 38.3706 19.235 38.7176 18.3633C39.073 17.4915 39.2508 16.4378 39.2508 15.2021V14.3008C39.2508 13.3529 39.1492 12.5192 38.9461 11.7998C38.7514 11.0804 38.4594 10.4753 38.0701 9.98438C37.6808 9.49349 37.2026 9.12533 36.6355 8.87988C36.0685 8.62598 35.4168 8.49902 34.6805 8.49902H30.5418V5.51562H34.6805C35.9161 5.51562 37.046 5.72721 38.0701 6.15039C39.1027 6.5651 39.9956 7.16178 40.7488 7.94043C41.5021 8.71908 42.0818 9.65007 42.4881 10.7334C42.9028 11.8083 43.1102 13.0059 43.1102 14.3262V15.2021C43.1102 16.514 42.9028 17.7116 42.4881 18.7949C42.0818 19.8783 41.5021 20.8092 40.7488 21.5879C40.004 22.3581 39.1111 22.9548 38.0701 23.3779C37.0376 23.7926 35.895 24 34.6424 24ZM32.7762 5.51562V24H28.9676V5.51562H32.7762Z" fill="#000000"/>
<circle cx="9.5" cy="14.5" r="9.5" fill="#000000"/>
<path d="M9.4028 22.0946C9.06123 21.1049 8.84158 20.3832 8.72947 19.8994C8.28711 17.9944 8.25833 16.1002 8.63532 14.192C8.70544 13.8534 9.07814 12.8038 9.26456 12.4316C9.51743 11.9193 10.088 10.8651 10.0993 10.8802C10.1041 10.8902 10.028 11.0574 9.92402 11.2563C9.64515 11.8065 9.04386 13.5352 8.92945 14.1161C8.72383 15.189 8.65389 16.0326 8.68325 17.0668C8.70172 17.6144 8.76799 18.3566 8.80765 18.4095C8.83314 18.4435 9.1129 18.3375 9.2921 18.2208C9.4294 18.1281 9.61503 17.911 9.66139 17.7804C9.69114 17.6966 9.68722 17.6841 9.61525 17.6752C9.57184 17.6681 9.53935 17.6538 9.54373 17.6415C9.54898 17.6267 9.68498 17.5141 9.84565 17.3908C10.275 17.0633 10.3856 16.9166 10.5777 16.4577C10.6862 16.1993 10.7278 16.0587 10.7055 16.0508C10.6833 16.0429 10.6041 16.0425 10.5223 16.0495C10.115 16.0797 10.1187 16.081 10.3262 16.0021C10.6581 15.8786 10.8863 15.6239 11.0252 15.221C11.09 15.0386 11.0908 15.0362 11.0068 15.0729C10.7886 15.1702 10.769 15.1549 10.9554 15.0297C11.109 14.9261 11.175 14.8579 11.2235 14.7448C11.2616 14.6612 11.2786 14.5895 11.2638 14.5843C11.249 14.579 11.1833 14.6112 11.1141 14.6532C11.0449 14.6952 10.9253 14.7499 10.8502 14.7732L10.7093 14.8174L10.8848 14.6994C11.3122 14.4128 11.4753 14.1766 11.603 13.6643L11.6794 13.3668L11.5657 13.393C11.5025 13.4066 11.3853 13.4427 11.3113 13.4747C11.1158 13.5551 11.1429 13.5258 11.4212 13.3417C11.7649 13.1141 11.9544 12.9567 12.082 12.7856C12.2133 12.6157 12.281 12.4484 12.2291 12.4299C12.1661 12.4076 11.4907 12.4757 11.1815 12.5352C11.0118 12.5665 10.8796 12.5861 10.8831 12.5763C10.8927 12.5492 11.3261 12.3867 11.7169 12.2619C12.1251 12.135 12.2273 12.0825 12.3206 11.9491C12.378 11.8696 12.5319 11.2362 12.559 10.96L12.5692 10.861L12.3154 10.929L12.0616 10.9971L12.221 10.901C12.4587 10.7607 12.6873 10.5283 12.7939 10.322C12.8464 10.2214 12.877 10.1351 12.8659 10.1312C12.8547 10.1272 12.7487 10.1673 12.6254 10.2206C12.408 10.3154 12.0369 10.4084 12.0151 10.3757C12.0057 10.3668 12.1085 10.3006 12.238 10.2301C12.9169 9.85798 12.9609 9.79311 12.8937 9.30036L12.8501 8.98801L12.7419 9.01063L12.6328 9.03571L12.6931 8.96C12.8309 8.79529 12.8752 8.55298 12.8251 8.18839C12.8013 7.99681 12.7784 7.80277 12.7821 7.75693L12.7824 7.6738L12.3198 7.80088C11.7877 7.94763 11.5192 8.06874 11.2105 8.30318C11.0907 8.39381 10.9798 8.47097 10.9632 8.47063C10.9467 8.47029 10.9858 8.39539 11.0485 8.30112C11.1149 8.20817 11.1621 8.12227 11.1527 8.11339C11.1272 8.07937 10.5376 8.25846 10.4267 8.33562C10.2776 8.43806 10.2087 8.64388 10.1872 9.06906C10.1759 9.25372 10.1622 9.40979 10.1539 9.40962C10.1448 9.41191 10.1085 9.24366 10.0733 9.03696C10.0391 8.8278 9.99975 8.64459 9.9893 8.627C9.96664 8.59676 9.30468 8.94438 9.10582 9.09296C8.97593 9.18834 8.96343 9.25881 9.01815 9.52796C9.04118 9.62769 9.05005 9.70853 9.04089 9.71083C9.03085 9.71558 8.95958 9.64589 8.8844 9.5637C8.81009 9.47905 8.74165 9.41313 8.7362 9.41674C8.67684 9.44283 8.58011 9.53889 8.56174 9.59063C8.54949 9.62513 8.59101 9.7786 8.64999 9.92995C8.71267 10.0826 8.75161 10.1963 8.73853 10.1861C8.72545 10.1759 8.67314 10.1352 8.61995 10.0969C8.50877 10.0102 8.47845 10.0133 8.49973 10.118C8.51122 10.1914 8.51035 10.1939 8.4467 10.138C8.28192 9.9907 8.24181 9.96258 8.21344 9.97193C8.14296 9.99408 7.71705 10.5587 7.66981 10.6917C7.63569 10.7878 7.65934 10.9211 7.81719 11.4876C7.88328 11.7248 7.93717 11.9492 7.93975 11.989C7.94188 12.0535 7.93163 12.0471 7.85582 11.9314C7.81313 11.8635 7.68572 11.6463 7.57901 11.453C7.47317 11.2573 7.37625 11.0952 7.36142 11.09C7.32435 11.0768 7.20612 11.304 7.01307 11.7654C6.82089 12.2243 6.79364 12.4421 6.88801 12.7642C6.94803 12.9714 7.00205 13.0544 7.41562 13.5592C7.56923 13.7497 7.70889 13.9324 7.72151 13.9674C7.73413 14.0024 7.54427 13.8435 7.2884 13.6C7.03536 13.3603 6.81826 13.1723 6.79994 13.1769C6.75957 13.1847 6.66803 13.807 6.65835 14.1282C6.63887 14.6651 6.7387 14.9835 7.06071 15.417C7.18816 15.5871 7.28925 15.7256 7.28184 15.723C7.27813 15.7217 7.15867 15.6349 7.01218 15.5301C6.76584 15.3539 6.74818 15.3448 6.72043 15.3877C6.63174 15.5199 6.70487 15.9371 6.86343 16.1959C6.91287 16.2801 6.95294 16.3553 6.95032 16.3627C6.94769 16.3701 6.87309 16.3686 6.78628 16.3544C6.59979 16.3271 6.58101 16.3565 6.65369 16.5515C6.71941 16.7191 6.72203 16.7117 6.62215 16.6874C6.54908 16.6697 6.55408 16.6909 6.67254 16.9217C6.74418 17.0609 6.91299 17.3261 7.04894 17.5076C7.27378 17.8149 7.28248 17.8374 7.18022 17.7845L7.07055 17.7289L7.14486 17.8135C7.24924 17.9311 7.47529 18.1057 7.73146 18.266C8.15616 18.5278 8.2141 18.6233 8.30825 19.1811C8.54474 20.5608 9.2531 22.6102 9.52744 22.7076C9.55339 22.7168 9.58088 22.71 9.58613 22.6952C9.59225 22.6779 9.50896 22.407 9.4028 22.0946ZM10.1452 10.8215C10.1367 10.8102 10.1409 10.7867 10.1581 10.7734C10.1762 10.7577 10.1847 10.769 10.1751 10.7961C10.1692 10.8245 10.1528 10.8353 10.1452 10.8215Z" fill="#E1E0E0"/>
</svg>
