<svg xmlns="http://www.w3.org/2000/svg" width="110" height="30" viewBox="0 0 110 30" fill="none">
<path d="M80.2694 13.7143C80.2694 8.91384 80.2694 6.51361 81.1952 4.68008C82.0096 3.06726 83.3091 1.756 84.9074 0.93423C86.7245 0 89.1032 0 93.8605 0H96.4088C101.166 0 103.545 0 105.362 0.93423C106.96 1.756 108.26 3.06726 109.074 4.68008C110 6.51361 110 8.91384 110 13.7143V16.2857C110 21.0862 110 23.4864 109.074 25.3199C108.26 26.9327 106.96 28.244 105.362 29.0658C103.545 30 101.166 30 96.4088 30H93.8605C89.1032 30 86.7245 30 84.9074 29.0658C83.3091 28.244 82.0096 26.9327 81.1952 25.3199C80.2694 23.4864 80.2694 21.0862 80.2694 16.2857V13.7143Z" fill="black"/>
<path d="M94.7454 25.8849C94.2241 24.4325 93.8891 23.3725 93.7183 22.661C93.0448 19.859 93.0053 17.0605 93.588 14.229C93.6964 13.7265 94.2704 12.164 94.5572 11.6083C94.9462 10.8436 95.8236 9.2682 95.841 9.29021C95.8483 9.30488 95.7312 9.55429 95.5712 9.85139C95.1423 10.673 94.2161 13.246 94.0392 14.1079C93.7213 15.6997 93.612 16.9486 93.6544 18.4762C93.6814 19.2849 93.7812 20.3797 93.8419 20.4567C93.8809 20.5062 94.3101 20.3411 94.5852 20.1632C94.7959 20.022 95.0811 19.6956 95.1525 19.5012C95.1983 19.3765 95.1923 19.3581 95.082 19.3471C95.0155 19.338 94.9657 19.3178 94.9724 19.2995C94.9805 19.2775 95.1893 19.1069 95.436 18.9198C96.0952 18.4228 96.265 18.2027 96.5608 17.5187C96.7277 17.1335 96.7918 16.9245 96.7577 16.9135C96.7236 16.9025 96.6022 16.9043 96.4768 16.9172C95.8522 16.9741 95.8578 16.9759 96.1762 16.853C96.6855 16.6604 97.036 16.2771 97.25 15.6774C97.3497 15.406 97.351 15.4023 97.2221 15.4592C96.8873 15.6096 96.8572 15.5876 97.1433 15.3968C97.3792 15.2391 97.4805 15.1364 97.5552 14.9677C97.6137 14.843 97.6401 14.7366 97.6174 14.7293C97.5946 14.7219 97.4938 14.7715 97.3876 14.8356C97.2814 14.8998 97.0979 14.9842 96.9828 15.0209L96.7665 15.0906L97.0359 14.9109C97.692 14.4744 97.9427 14.1204 98.1397 13.3593L98.2576 12.9174L98.0833 12.9596C97.9862 12.9816 97.8064 13.0384 97.6929 13.088C97.3929 13.2127 97.4345 13.1687 97.8617 12.8881C98.3894 12.5414 98.6803 12.303 98.8763 12.0462C99.078 11.7913 99.1824 11.5419 99.1028 11.5162C99.0062 11.4851 97.9704 11.6062 97.4962 11.7034C97.2359 11.7548 97.0331 11.7878 97.0385 11.7731C97.0533 11.7328 97.7182 11.4797 98.3178 11.2834C98.9441 11.0834 99.1008 11.0027 99.2442 10.8028C99.3325 10.6836 99.5701 9.74285 99.6123 9.33389L99.628 9.18718L98.8495 9.40365L99.0941 9.25692C99.4589 9.04232 99.81 8.69203 99.974 8.38393C100.055 8.23354 100.102 8.10517 100.085 8.09967C100.068 8.09417 99.905 8.15653 99.7158 8.23907C99.3823 8.38581 98.813 8.5344 98.7797 8.48672C98.7653 8.47389 98.9231 8.37301 99.1218 8.2648C100.164 7.69438 100.231 7.59718 100.129 6.87098L100.063 6.41069L99.8975 6.44738L99.7301 6.48774L99.8228 6.37403C100.034 6.12645 100.103 5.767 100.027 5.22969C99.9911 4.94728 99.9564 4.6612 99.9622 4.59335L99.9629 4.47048L99.2533 4.67227C98.4369 4.90524 98.025 5.09232 97.5512 5.44813C97.3672 5.58569 97.197 5.70307 97.1715 5.70307C97.1461 5.70307 97.2063 5.5912 97.3026 5.44999C97.4047 5.31061 97.4773 5.18223 97.4629 5.1694C97.4239 5.11988 96.5195 5.40238 96.3492 5.51976C96.1204 5.67566 96.0142 5.98192 95.9801 6.61093C95.9623 6.88418 95.941 7.11525 95.9283 7.11525C95.9142 7.11892 95.859 6.87135 95.8056 6.56694C95.7536 6.25885 95.6938 5.98928 95.6778 5.96361C95.6431 5.9196 94.6273 6.45334 94.322 6.67893C94.1226 6.82382 94.1033 6.92835 94.1865 7.32446C94.2216 7.47116 94.235 7.59036 94.2209 7.59403C94.2055 7.60137 94.0964 7.50052 93.9813 7.38132C93.8676 7.25847 93.7628 7.16312 93.7545 7.16862C93.6634 7.20897 93.5148 7.35386 93.4865 7.43088C93.4677 7.48223 93.531 7.70779 93.621 7.92968C93.7168 8.1534 93.7762 8.32028 93.7562 8.30561C93.7361 8.29094 93.656 8.23226 93.5745 8.17725C93.4043 8.05257 93.3578 8.05807 93.3902 8.21211C93.4076 8.32031 93.4063 8.32398 93.3088 8.2433C93.0565 8.03059 92.9951 7.99025 92.9516 8.00492C92.8434 8.03978 92.189 8.88707 92.1162 9.08514C92.0637 9.22818 92.0996 9.4244 92.3402 10.257C92.441 10.6054 92.5231 10.9355 92.5269 10.9941C92.53 11.0895 92.5143 11.0803 92.3984 10.9116C92.3331 10.8126 92.1383 10.4954 91.9751 10.213C91.8133 9.9269 91.6651 9.69035 91.6424 9.68302C91.5856 9.66468 91.4037 10.004 91.1066 10.6917C90.8108 11.3757 90.7685 11.6985 90.9124 12.1716C91.0039 12.476 91.0865 12.5971 91.7194 13.3305C91.9545 13.6074 92.1682 13.8733 92.1874 13.9247C92.2067 13.976 91.916 13.7468 91.5242 13.3947C91.1368 13.0482 90.8044 12.7768 90.7763 12.7841C90.7144 12.797 90.5725 13.7194 90.5569 14.1944C90.5257 14.9885 90.678 15.4561 91.1706 16.0869C91.3657 16.3344 91.5203 16.5361 91.509 16.5325C91.5033 16.5306 91.3203 16.406 91.096 16.2556C90.7187 16.0026 90.6916 15.9897 90.649 16.0539C90.5127 16.252 90.6238 16.8663 90.8662 17.2441C90.9418 17.3669 91.0031 17.477 90.9991 17.488C90.995 17.499 90.8806 17.499 90.7476 17.4806C90.4617 17.4458 90.4328 17.4898 90.5438 17.7759C90.6441 18.0216 90.6482 18.0106 90.4951 17.9776C90.3831 17.9538 90.3907 17.985 90.5718 18.3224C90.6813 18.5259 90.9395 18.9129 91.1475 19.1769C91.4915 19.6244 91.5047 19.6574 91.3481 19.5822L91.18 19.5033L91.2938 19.6262C91.4535 19.7967 91.7997 20.0479 92.1921 20.2771C92.8427 20.6512 92.9313 20.7906 93.0743 21.6121C93.4335 23.644 94.5146 26.6514 94.935 26.7871C94.9747 26.7999 95.0169 26.7889 95.025 26.7669C95.0344 26.7412 94.9074 26.3433 94.7454 25.8849ZM95.9114 9.20218C95.8984 9.18567 95.9049 9.15083 95.9314 9.13065C95.9592 9.10681 95.9722 9.12332 95.9574 9.16366C95.9482 9.20584 95.9231 9.22235 95.9114 9.20218Z" fill="#E1E0E0"/>
<path d="M23.7709 10.704C23.7709 17.7394 18.5112 20.0023 12.5175 20.0023H9.09248C8.39933 20.0023 7.86928 20.5371 7.86928 21.2366V28.848C7.86928 29.3829 7.42077 29.8766 6.84994 29.8766H1.01934C0.530055 29.8766 0 29.3417 0 28.848V4.77943C0 3.17486 0.897016 1.98171 2.32409 1.40571C2.73182 1.28229 3.13956 1.2 3.54729 1.2H12.5175C18.9189 1.2 23.7709 3.87428 23.7709 10.704ZM15.8609 10.6629C15.8609 8.31771 14.6377 7.08343 12.3136 7.08343H5.42287C5.62674 7.08343 5.87138 7.12457 6.15679 7.20686C6.44221 7.33029 6.68685 7.45371 6.93149 7.65943C7.42077 8.15314 7.74696 8.60571 7.74696 9.34628V12.8846C7.74696 13.2549 7.86928 13.584 8.15469 13.7897C8.39933 14.0366 8.68475 14.16 9.01093 14.16H12.3136C14.5154 14.16 15.8609 12.9257 15.8609 10.6629Z" fill="black"/>
<path d="M27.2714 28.8891V4.82057C27.2714 2.80457 28.8208 1.24114 30.8187 1.24114H47.4543C47.9843 1.24114 48.5144 1.776 48.5144 2.31086V6.384C48.5144 6.672 48.392 6.91886 48.1882 7.08343C47.9843 7.28914 47.7397 7.37143 47.4543 7.37143H32.3681C33.5913 7.37143 34.6106 8.35886 34.6106 9.59314V11.3211C34.6106 12.0617 35.1814 12.5966 35.8746 12.5966H44.7224C45.4156 12.5966 45.7825 12.9669 45.7825 13.6663V17.3691C45.7825 18.0686 45.4156 18.4389 44.7224 18.4389H32.3681C33.5097 18.4389 34.6106 19.3851 34.6106 20.5783V22.512C34.6106 22.8 34.7329 23.088 34.9776 23.376C35.1814 23.664 35.5076 23.7874 35.8746 23.7874H47.7804C48.4328 23.7874 48.8406 24.1989 48.8406 24.8571V28.8891C48.8406 29.4651 48.3513 29.9177 47.7804 29.9177H28.2907C27.6791 29.9177 27.2714 29.5063 27.2714 28.8891Z" fill="black"/>
<path d="M77.4065 29.6709C77.2434 29.8354 77.0395 29.9177 76.7949 29.9177H71.0866C70.3119 29.9177 69.7411 29.5474 69.4149 28.8069L65.2968 20.5783C65.0521 20.1257 64.6852 19.92 64.1959 19.92H58.8138C59.9962 19.92 61.0563 20.8663 61.0563 22.1006V28.8891C61.0563 29.2183 60.9748 29.4651 60.7709 29.6297C60.5671 29.8354 60.3224 29.9177 59.9962 29.9177H54.451C53.8394 29.9177 53.4317 29.5063 53.4317 28.8891V4.82057C53.4317 2.84571 55.0219 1.24114 56.979 1.24114H65.623C71.8205 1.24114 76.9988 3.91543 76.9988 10.6217C76.9988 14.0366 75.694 16.6286 72.6768 18.2743C72.4729 18.4389 72.3506 18.6034 72.3506 18.8091C72.3506 19.0149 72.3914 19.1383 72.4321 19.2617L77.5288 28.6011C77.6104 28.7657 77.6511 28.9303 77.6511 29.0537C77.6511 29.2594 77.5696 29.4651 77.4065 29.6709ZM69.1295 10.5806C69.1295 9.46971 68.8033 8.60571 68.1917 7.98857C67.5393 7.41257 66.6831 7.12457 65.5822 7.12457H58.5692C59.7516 7.12457 60.7709 8.15314 60.7709 9.34628V12.6377C60.7709 13.3371 61.3418 13.9131 62.0349 13.9131H65.5822C67.7432 13.9131 69.1295 12.8434 69.1295 10.5806Z" fill="black"/>
</svg>
