<svg width="140" height="48" viewBox="0 0 140 48" fill="none" xmlns="http://www.w3.org/2000/svg">
<path d="M31.3578 15.8767C31.3578 27.142 24.4193 30.7653 16.5126 30.7653H11.9945C11.0801 30.7653 10.3809 31.6217 10.3809 32.7416V44.9292C10.3809 45.7856 9.78923 46.5761 9.03622 46.5761H1.34467C0.699231 46.5761 0 45.7197 0 44.9292V6.39022C0 3.82096 1.18331 1.91048 3.06586 0.988178C3.60373 0.790542 4.1416 0.658785 4.67947 0.658785H16.5126C24.9572 0.658785 31.3578 4.9409 31.3578 15.8767ZM20.9231 15.8109C20.9231 12.0558 19.3095 10.0794 16.2437 10.0794H7.15367C7.42261 10.0794 7.74533 10.1453 8.12184 10.2771C8.49835 10.4747 8.82107 10.6723 9.14379 11.0017C9.78923 11.7923 10.2195 12.5169 10.2195 13.7027V19.3683C10.2195 19.9612 10.3809 20.4882 10.7574 20.8176C11.0801 21.2129 11.4566 21.4105 11.8869 21.4105H16.2437C19.1482 21.4105 20.9231 19.4342 20.9231 15.8109ZM35.9755 44.9951V6.4561C35.9755 3.22805 38.0194 0.724667 40.655 0.724667H62.6001C63.2993 0.724667 63.9986 1.58109 63.9986 2.43751V8.95949C63.9986 9.42064 63.8372 9.81591 63.5683 10.0794C63.2993 10.4088 62.9766 10.5406 62.6001 10.5406H42.6989C44.3125 10.5406 45.6572 12.1217 45.6572 14.098V16.8649C45.6572 18.0507 46.4102 18.9072 47.3246 18.9072H58.9964C59.9107 18.9072 60.3948 19.5001 60.3948 20.62V26.5491C60.3948 27.669 59.9107 28.2619 58.9964 28.2619H42.6989C44.2049 28.2619 45.6572 29.7771 45.6572 31.6876V34.7839C45.6572 35.245 45.8185 35.7062 46.1413 36.1673C46.4102 36.6285 46.8405 36.8261 47.3246 36.8261H63.0304C63.891 36.8261 64.4288 37.4849 64.4288 38.539V44.9951C64.4288 45.9174 63.7834 46.642 63.0304 46.642H37.3202C36.5134 46.642 35.9755 45.9832 35.9755 44.9951ZM102.112 46.2468C101.897 46.5103 101.628 46.642 101.305 46.642H93.7751C92.7532 46.642 92.0001 46.0491 91.5698 44.8633L86.1374 31.6876C85.8146 30.9629 85.3306 30.6335 84.6851 30.6335H77.5852C79.1451 30.6335 80.5435 32.1487 80.5435 34.1251V44.9951C80.5435 45.5221 80.4359 45.9174 80.167 46.1809C79.8981 46.5103 79.5753 46.642 79.1451 46.642H71.83C71.0232 46.642 70.4853 45.9832 70.4853 44.9951V6.4561C70.4853 3.29393 72.583 0.724667 75.1648 0.724667H86.5677C94.7433 0.724667 101.574 5.00678 101.574 15.745C101.574 21.2129 99.853 25.3633 95.8728 27.9984C95.6039 28.2619 95.4425 28.5254 95.4425 28.8548C95.4425 29.1842 95.4963 29.3818 95.5501 29.5795L102.273 44.5339C102.381 44.7974 102.435 45.0609 102.435 45.2586C102.435 45.588 102.327 45.9174 102.112 46.2468ZM91.1933 15.6791C91.1933 13.9004 90.763 12.5169 89.9562 11.5288C89.0956 10.6065 87.9661 10.1453 86.5139 10.1453H77.2625C78.8223 10.1453 80.167 11.7923 80.167 13.7027V18.973C80.167 20.093 80.92 21.0153 81.8344 21.0153H86.5139C89.3646 21.0153 91.1933 19.3024 91.1933 15.6791ZM123.218 47.4326C113.644 47.4326 106.813 41.8988 106.491 29.5136C106.437 28.2619 106.437 26.4173 106.437 23.848C106.437 21.2788 106.437 19.3683 106.491 18.1166C106.813 5.8632 113.698 0 123.218 0C132.739 0 139.57 5.8632 139.892 18.1166C139.946 20.6859 140 22.5963 140 23.848C140 30.7653 140 37.9461 135.267 42.887C132.308 45.9174 128.328 47.4326 123.218 47.4326ZM123.218 37.5508C127.468 37.5508 129.35 33.9933 129.458 29.1183C129.512 26.5491 129.565 24.7703 129.565 23.6504C129.565 22.5305 129.512 20.7517 129.458 18.3142C129.35 13.3733 127.521 9.88179 123.218 9.88179C118.862 9.88179 117.033 13.3075 116.925 18.3142C116.872 19.5659 116.872 21.3447 116.872 23.6504C116.872 26.022 116.872 27.8666 116.925 29.1183C117.033 34.0592 118.969 37.5508 123.218 37.5508Z" fill="black"/>
</svg>
