<svg width="140" height="65" viewBox="0 0 140 65" fill="none" xmlns="http://www.w3.org/2000/svg">
<path d="M4.20103 63.085L1.04818 57.4598V62.5737H1.53067C1.61939 62.5737 1.66377 62.6203 1.66377 62.714C1.66377 62.7607 1.64992 62.8409 1.62218 62.9547L1.60554 63.0349H0.0332755C0.0110932 62.9948 0 62.9412 0 62.8745C0 62.8008 0.0194118 62.7341 0.0582319 62.6739L0.615597 62.5937V57.0286H0.133102C0.0443686 57.0286 0 56.9815 0 56.8883C0 56.8411 0.0138632 56.7609 0.0415941 56.6476L0.0582319 56.5674H1.08977L4.1012 61.942V57.0286H3.61871C3.52999 57.0286 3.48561 56.9815 3.48561 56.8883C3.48561 56.8411 3.49946 56.7609 3.5272 56.6476L3.54384 56.5674H5.11611C5.13828 56.6075 5.14938 56.6606 5.14938 56.7278C5.14938 56.801 5.12996 56.8682 5.09115 56.9284L4.53379 57.0086V62.9848C4.48387 63.0113 4.42843 63.0314 4.36741 63.0449C4.31196 63.065 4.25648 63.078 4.20103 63.085ZM9.89355 60.4178H7.09841V60.5281C7.09841 61.1764 7.23705 61.6943 7.51436 62.0823C7.7972 62.4634 8.17429 62.6539 8.64572 62.6539C8.86201 62.6539 9.08384 62.6168 9.31123 62.5436C9.54416 62.4699 9.73271 62.3861 9.87692 62.2929C9.92126 62.346 9.95453 62.4062 9.97674 62.4734C9.99891 62.5336 10.0128 62.5967 10.0183 62.6639C9.55801 62.9778 9.07552 63.1352 8.57085 63.1352C8.18261 63.1352 7.84432 63.0279 7.55595 62.8143C7.26753 62.5937 7.04292 62.2894 6.88212 61.9018C6.72128 61.5073 6.64087 61.0495 6.64087 60.5281C6.64087 59.9997 6.71574 59.5419 6.86548 59.1544C7.02076 58.7598 7.23983 58.4555 7.52267 58.2419C7.80552 58.0278 8.13827 57.921 8.52094 57.921C9.54137 57.921 10.0516 58.653 10.0516 60.117C10.0072 60.2303 9.95453 60.3306 9.89355 60.4178ZM7.13169 59.9867H9.61071C9.61071 58.9037 9.24743 58.3622 8.52094 58.3622C8.15491 58.3622 7.84711 58.5091 7.59754 58.8034C7.35351 59.0972 7.19824 59.4918 7.13169 59.9867ZM15.9187 63.055L14.7125 58.9639L13.5063 63.055C13.4619 63.068 13.4037 63.075 13.3316 63.075C13.2595 63.075 13.2013 63.068 13.1569 63.055L11.9257 58.4525H11.4432C11.3545 58.4525 11.3101 58.4054 11.3101 58.3121C11.3101 58.272 11.3212 58.2018 11.3434 58.1015L11.36 58.0213H12.9905C13.0071 58.0745 13.0155 58.1216 13.0155 58.1617C13.0155 58.2148 12.9988 58.2785 12.9655 58.3522L12.3999 58.4324L13.3565 62.2227L14.5628 58.0213C14.6072 58.0078 14.6654 58.0013 14.7375 58.0013C14.8096 58.0013 14.8678 58.0078 14.9122 58.0213L16.1101 62.1726L17.0668 58.4525H16.5843C16.4955 58.4525 16.4512 58.4054 16.4512 58.3121C16.4512 58.272 16.4623 58.2018 16.4844 58.1015L16.5011 58.0213H18.0983C18.1149 58.0745 18.1232 58.1216 18.1232 58.1617C18.1232 58.2148 18.1066 58.2785 18.0733 58.3522L17.5077 58.4324L16.2681 63.055C16.2238 63.068 16.1655 63.075 16.0934 63.075C16.0214 63.075 15.9631 63.068 15.9187 63.055ZM24.1301 63.0349H22.3582C22.3416 62.9813 22.3333 62.9346 22.3333 62.8945C22.3333 62.8409 22.3499 62.7772 22.3832 62.704L23.0321 62.6238V56.788H22.3166C22.3 56.7409 22.2917 56.6942 22.2917 56.6476C22.2917 56.5874 22.3083 56.5238 22.3416 56.4571L23.2483 56.2666C23.3426 56.3267 23.4203 56.3999 23.4813 56.4872V62.6037H24.047C24.1357 62.6037 24.1801 62.6504 24.1801 62.7441C24.1801 62.7842 24.1689 62.8544 24.1468 62.9547L24.1301 63.0349ZM28.9649 60.4178H26.1698V60.5281C26.1698 61.1764 26.3084 61.6943 26.5857 62.0823C26.8685 62.4634 27.2456 62.6539 27.7171 62.6539C27.9334 62.6539 28.1552 62.6168 28.3826 62.5436C28.6155 62.4699 28.8041 62.3861 28.9483 62.2929C28.9926 62.346 29.0259 62.4062 29.0481 62.4734C29.0703 62.5336 29.0841 62.5967 29.0897 62.6639C28.6294 62.9778 28.1469 63.1352 27.6422 63.1352C27.254 63.1352 26.9157 63.0279 26.6273 62.8143C26.3389 62.5937 26.1143 62.2894 25.9535 61.9018C25.7926 61.5073 25.7122 61.0495 25.7122 60.5281C25.7122 59.9997 25.7871 59.5419 25.9368 59.1544C26.0921 58.7598 26.3112 58.4555 26.594 58.2419C26.8769 58.0278 27.2096 57.921 27.5923 57.921C28.6127 57.921 29.123 58.653 29.123 60.117C29.0786 60.2303 29.0259 60.3306 28.9649 60.4178ZM26.203 59.9867H28.6821C28.6821 58.9037 28.3188 58.3622 27.5923 58.3622C27.2263 58.3622 26.9185 58.5091 26.6689 58.8034C26.4249 59.0972 26.2696 59.4918 26.203 59.9867ZM32.4798 63.055L30.9158 58.4525H30.4333C30.3445 58.4525 30.3002 58.4054 30.3002 58.3121C30.3002 58.272 30.3113 58.2018 30.3335 58.1015L30.3501 58.0213H31.9723C31.9889 58.0745 31.9973 58.1216 31.9973 58.1617C31.9973 58.2148 31.9806 58.2785 31.9473 58.3522L31.3817 58.4324L32.6794 62.323L33.9522 58.4525H33.4697C33.3809 58.4525 33.3366 58.4054 33.3366 58.3121C33.3366 58.272 33.3477 58.2018 33.3699 58.1015L33.3865 58.0213H34.9837C35.0004 58.0745 35.0087 58.1216 35.0087 58.1617C35.0087 58.2148 34.9921 58.2785 34.9588 58.3522L34.3931 58.4324L32.8291 63.055C32.7848 63.068 32.7265 63.075 32.6545 63.075C32.5823 63.075 32.5241 63.068 32.4798 63.055ZM39.4144 60.4178H36.6194V60.5281C36.6194 61.1764 36.758 61.6943 37.0353 62.0823C37.3181 62.4634 37.6953 62.6539 38.1666 62.6539C38.3829 62.6539 38.605 62.6168 38.8321 62.5436C39.065 62.4699 39.2539 62.3861 39.3978 62.2929C39.4423 62.346 39.4756 62.4062 39.4976 62.4734C39.5201 62.5336 39.5338 62.5967 39.5392 62.6639C39.0792 62.9778 38.5967 63.1352 38.0917 63.1352C37.7036 63.1352 37.3653 63.0279 37.0769 62.8143C36.7885 62.5937 36.5639 62.2894 36.4031 61.9018C36.2423 61.5073 36.1618 61.0495 36.1618 60.5281C36.1618 59.9997 36.2367 59.5419 36.3864 59.1544C36.5417 58.7598 36.7608 58.4555 37.0436 58.2419C37.3265 58.0278 37.6592 57.921 38.0418 57.921C39.0625 57.921 39.5725 58.653 39.5725 60.117C39.5284 60.2303 39.4756 60.3306 39.4144 60.4178ZM36.6526 59.9867H39.1316C39.1316 58.9037 38.7684 58.3622 38.0418 58.3622C37.6758 58.3622 37.368 58.5091 37.1185 58.8034C36.8745 59.0972 36.7192 59.4918 36.6526 59.9867ZM42.9171 63.0349H41.1452C41.1285 62.9813 41.1202 62.9346 41.1202 62.8945C41.1202 62.8409 41.1368 62.7772 41.1701 62.704L41.819 62.6238V56.788H41.1036C41.0869 56.7409 41.0786 56.6942 41.0786 56.6476C41.0786 56.5874 41.0952 56.5238 41.1285 56.4571L42.0353 56.2666C42.1297 56.3267 42.2071 56.3999 42.2682 56.4872V62.6037H42.8339C42.9225 62.6037 42.967 62.6504 42.967 62.7441C42.967 62.7842 42.9558 62.8544 42.9337 62.9547L42.9171 63.0349ZM49.1912 63.0349H47.4192C47.4026 62.9813 47.3943 62.9346 47.3943 62.8945C47.3943 62.8409 47.4109 62.7772 47.4442 62.704L48.0931 62.6238V58.4926H47.4192C47.4026 58.4455 47.3943 58.3988 47.3943 58.3522C47.3943 58.2921 47.4109 58.2284 47.4442 58.1617L48.3094 57.9712C48.4034 58.0313 48.4811 58.1045 48.5423 58.1918V62.6037H49.108C49.1966 62.6037 49.2411 62.6504 49.2411 62.7441C49.2411 62.7842 49.2299 62.8544 49.2078 62.9547L49.1912 63.0349ZM48.5672 56.6977C48.5672 56.8246 48.534 56.9284 48.4674 57.0086C48.4009 57.0818 48.3094 57.1189 48.1929 57.1189C48.0764 57.1189 47.9849 57.0818 47.9184 57.0086C47.8518 56.9284 47.8186 56.8246 47.8186 56.6977C47.8186 56.5704 47.8518 56.4701 47.9184 56.3969C47.9849 56.3167 48.0764 56.2766 48.1929 56.2766C48.3094 56.2766 48.4009 56.3167 48.4674 56.3969C48.534 56.4701 48.5672 56.5704 48.5672 56.6977ZM55.2735 63.0349H53.668C53.6513 62.9813 53.643 62.9346 53.643 62.8945C53.643 62.8409 53.6596 62.7772 53.6929 62.704L54.2586 62.6238V59.7761C54.2586 58.8335 53.9288 58.3622 53.2687 58.3622C53.0083 58.3622 52.767 58.4555 52.5449 58.643C52.3286 58.8235 52.1539 59.0672 52.0208 59.375C51.8877 59.6758 51.8212 60.0067 51.8212 60.3677V62.6037H52.3037C52.3927 62.6037 52.4368 62.6504 52.4368 62.7441C52.4368 62.7842 52.426 62.8544 52.4035 62.9547L52.3869 63.0349H50.7813C50.7647 62.9813 50.7564 62.9346 50.7564 62.8945C50.7564 62.8409 50.773 62.7772 50.8063 62.704L51.372 62.6238V58.4926H50.7397C50.7231 58.4455 50.7148 58.3988 50.7148 58.3522C50.7148 58.2921 50.7314 58.2284 50.7647 58.1617L51.5882 57.9712C51.6827 58.0313 51.7604 58.1045 51.8212 58.1918L51.7629 59.1945C51.9185 58.7864 52.1319 58.4725 52.4035 58.2519C52.6755 58.0313 52.9887 57.921 53.3435 57.921C53.7873 57.921 54.1255 58.0815 54.3584 58.4024C54.5914 58.7162 54.7078 59.1744 54.7078 59.7761V62.6037H55.1903C55.2793 62.6037 55.3234 62.6504 55.3234 62.7441C55.3234 62.7842 55.3126 62.8544 55.2902 62.9547L55.2735 63.0349ZM59.9591 62.5035L59.9425 61.4105C59.9812 61.3905 60.0228 61.3804 60.0673 61.3804C60.1226 61.3804 60.1754 61.4005 60.2253 61.4406L60.4 62.4734C60.6716 62.6203 60.9848 62.694 61.3401 62.694C61.6836 62.694 61.9556 62.6067 62.1553 62.4333C62.355 62.2593 62.4548 62.0252 62.4548 61.7314C62.4548 61.4907 62.377 61.2867 62.2218 61.1197C62.0721 60.9523 61.8334 60.8119 61.5064 60.6986C61.1346 60.5712 60.8409 60.4409 60.6246 60.3075C60.4083 60.1671 60.2528 60.0097 60.1588 59.8362C60.0698 59.6557 60.0257 59.4417 60.0257 59.1945C60.0257 58.7999 60.1504 58.4891 60.4 58.262C60.655 58.0344 61.0015 57.921 61.4399 57.921C61.6395 57.921 61.8446 57.9441 62.0555 57.9912C62.2718 58.0379 62.4323 58.098 62.538 58.1717C62.5987 58.2585 62.6515 58.3587 62.696 58.4725L62.7127 59.4652C62.6682 59.4853 62.6266 59.4953 62.5879 59.4953C62.5321 59.4953 62.4797 59.4753 62.4298 59.4352L62.2551 58.5127C62.0164 58.4054 61.7531 58.3522 61.4648 58.3522C60.8047 58.3522 60.4749 58.633 60.4749 59.1945C60.4749 59.3479 60.5053 59.4818 60.5664 59.5956C60.6329 59.7024 60.7465 59.8026 60.9075 59.8964C61.068 59.9897 61.2901 60.0899 61.573 60.1972C62.0388 60.3642 62.377 60.5712 62.5879 60.8189C62.8042 61.0595 62.9123 61.3634 62.9123 61.7314C62.9123 62.1655 62.7734 62.51 62.4964 62.7642C62.2189 63.0113 61.8334 63.1352 61.3401 63.1352C61.1071 63.1352 60.8796 63.1051 60.6579 63.0449C60.4416 62.9848 60.2611 62.9046 60.1172 62.8043C60.056 62.7171 60.0032 62.6168 59.9591 62.5035ZM65.007 61.5509V58.4625H64.3748C64.3581 58.4089 64.3498 58.3623 64.3498 58.3221C64.3498 58.255 64.3665 58.1883 64.3997 58.1216L65.007 58.0313L65.1401 56.9785C65.1842 56.965 65.237 56.9584 65.2982 56.9584C65.3369 56.9584 65.3897 56.965 65.4562 56.9785V58.0213H66.6042C66.6928 58.0213 66.7373 58.0679 66.7373 58.1617C66.7373 58.2018 66.7261 58.272 66.7041 58.3723L66.6874 58.4625H65.4562V61.3504C65.4562 61.6642 65.47 61.9184 65.4978 62.1124C65.5311 62.2994 65.5947 62.4363 65.6892 62.5235C65.789 62.6103 65.9412 62.6539 66.1467 62.6539C66.2465 62.6539 66.3572 62.6438 66.4795 62.6238C66.6067 62.6037 66.7315 62.5737 66.8538 62.5335C66.9037 62.6403 66.9341 62.7672 66.9453 62.9146C66.8288 62.9813 66.6874 63.0349 66.521 63.075C66.3547 63.1151 66.1883 63.1352 66.0219 63.1352C65.6946 63.1352 65.4421 63.0214 65.2649 62.7943C65.0927 62.5666 65.007 62.1525 65.007 61.5509ZM70.1714 63.065L68.6573 58.4525H68.1748C68.0862 58.4525 68.0417 58.4054 68.0417 58.3121C68.0417 58.272 68.053 58.2018 68.075 58.1015L68.0916 58.0213H69.7138C69.7305 58.0745 69.7388 58.1216 69.7388 58.1617C69.7388 58.2148 69.7221 58.2785 69.6889 58.3522L69.1232 58.4324L70.396 62.4333L71.6937 58.4525H71.2112C71.1226 58.4525 71.0781 58.4054 71.0781 58.3121C71.0781 58.272 71.0894 58.2018 71.1114 58.1015L71.128 58.0213H72.7253C72.7419 58.0745 72.7502 58.1216 72.7502 58.1617C72.7502 58.2148 72.7336 58.2785 72.7003 58.3522L72.1346 58.4324L70.6622 62.7642C70.5124 63.1983 70.3436 63.5764 70.1547 63.8972C69.9717 64.2246 69.7471 64.4818 69.4809 64.6693C69.2205 64.8629 68.8986 64.9732 68.5159 65.0002C68.4939 64.9531 68.4772 64.903 68.466 64.8498C68.4606 64.7962 68.4577 64.7496 68.4577 64.7094C68.4577 64.6623 68.4606 64.6222 68.466 64.5891C68.9098 64.5154 69.2675 64.3314 69.5391 64.0376C69.8166 63.7433 70.0274 63.4189 70.1714 63.065ZM75.6007 63.0349H73.8288C73.8121 62.9813 73.8038 62.9346 73.8038 62.8945C73.8038 62.8409 73.8204 62.7772 73.8537 62.704L74.5026 62.6238V56.788H73.7872C73.7705 56.7409 73.7622 56.6942 73.7622 56.6476C73.7622 56.5874 73.7788 56.5238 73.8121 56.4571L74.7189 56.2666C74.8129 56.3267 74.8907 56.3999 74.9518 56.4872V62.6037H75.5175C75.6061 62.6037 75.6506 62.6504 75.6506 62.7441C75.6506 62.7842 75.6394 62.8544 75.6173 62.9547L75.6007 63.0349ZM80.4352 60.4178H77.64V60.5281C77.64 61.1764 77.779 61.6943 78.056 62.0823C78.3388 62.4634 78.7161 62.6539 79.1874 62.6539C79.4037 62.6539 79.6258 62.6168 79.8529 62.5436C80.0858 62.4699 80.2746 62.3861 80.4186 62.2929C80.4631 62.346 80.4963 62.4062 80.5184 62.4734C80.5408 62.5336 80.5546 62.5967 80.56 62.6639C80.0999 62.9778 79.6174 63.1352 79.1125 63.1352C78.7244 63.1352 78.3863 63.0279 78.0976 62.8143C77.8093 62.5937 77.5847 62.2894 77.4238 61.9018C77.2632 61.5073 77.1825 61.0495 77.1825 60.5281C77.1825 59.9997 77.2574 59.5419 77.4071 59.1544C77.5627 58.7598 77.7815 58.4555 78.0643 58.2419C78.3472 58.0278 78.6799 57.921 79.0626 57.921C80.0833 57.921 80.5933 58.653 80.5933 60.117C80.5492 60.2303 80.4963 60.3306 80.4352 60.4178ZM77.6733 59.9867H80.1524C80.1524 58.9037 79.7892 58.3622 79.0626 58.3622C78.6966 58.3622 78.3888 58.5091 78.1392 58.8034C77.8954 59.0972 77.7399 59.4918 77.6733 59.9867ZM89.0041 62.8945L88.1805 63.085C88.0865 63.0249 88.0087 62.9512 87.9476 62.8644L87.9891 62.1425C87.812 62.4563 87.5928 62.7005 87.332 62.8745C87.077 63.0479 86.7941 63.1352 86.4834 63.1352C86.1008 63.1352 85.7905 63.0048 85.5517 62.7441C85.3188 62.4834 85.2023 62.1455 85.2023 61.7314C85.2023 61.2566 85.3579 60.8891 85.6682 60.6284C85.9843 60.3607 86.4281 60.2273 86.9992 60.2273C87.1269 60.2273 87.2737 60.2338 87.4401 60.2474C87.6065 60.2604 87.7812 60.2839 87.9642 60.3175V59.9165C87.9642 58.8867 87.579 58.3723 86.8079 58.3723C86.6082 58.3723 86.3948 58.4154 86.1673 58.5026C85.9456 58.5828 85.7406 58.6997 85.5517 58.8536C85.513 58.8135 85.4768 58.7563 85.4436 58.6831C85.4103 58.6029 85.3937 58.5357 85.3937 58.4826C85.6099 58.3021 85.8404 58.1647 86.0841 58.0715C86.3337 57.9712 86.5749 57.921 86.8079 57.921C87.8673 57.921 88.3968 58.5859 88.3968 59.9165V62.5636H89.029C89.0456 62.6103 89.054 62.6569 89.054 62.704C89.054 62.7642 89.0373 62.8273 89.0041 62.8945ZM87.9642 61.1498V60.7487C87.787 60.7216 87.6148 60.7016 87.4484 60.6886C87.282 60.6685 87.1323 60.6585 86.9992 60.6585C86.5612 60.6585 86.2285 60.7487 86.0009 60.9292C85.7738 61.1027 85.6599 61.3634 85.6599 61.7113C85.6599 62.0051 85.7376 62.2428 85.8928 62.4232C86.0538 62.6037 86.2646 62.694 86.525 62.694C86.7692 62.694 86.9992 62.6203 87.2155 62.4734C87.4376 62.326 87.6177 62.1355 87.7562 61.9018C87.8951 61.6677 87.9642 61.417 87.9642 61.1498ZM95.0057 63.0349H93.4002C93.3835 62.9813 93.3752 62.9346 93.3752 62.8945C93.3752 62.8409 93.3918 62.7772 93.4251 62.704L93.9908 62.6238V59.7761C93.9908 58.8335 93.661 58.3622 93.0009 58.3622C92.7401 58.3622 92.4988 58.4555 92.2771 58.643C92.0608 58.8235 91.8861 59.0672 91.753 59.375C91.6199 59.6758 91.5534 60.0067 91.5534 60.3677V62.6037H92.0359C92.1245 62.6037 92.169 62.6504 92.169 62.7441C92.169 62.7842 92.1577 62.8544 92.1357 62.9547L92.1191 63.0349H90.5135C90.4969 62.9813 90.4886 62.9346 90.4886 62.8945C90.4886 62.8409 90.5052 62.7772 90.5385 62.704L91.1042 62.6238V58.4926H90.4719C90.4553 58.4455 90.447 58.3988 90.447 58.3522C90.447 58.2921 90.4636 58.2284 90.4969 58.1617L91.3204 57.9712C91.4149 58.0313 91.4922 58.1045 91.5534 58.1918L91.4951 59.1945C91.6503 58.7864 91.8641 58.4725 92.1357 58.2519C92.4073 58.0313 92.7209 57.921 93.0757 57.921C93.5195 57.921 93.8577 58.0815 94.0906 58.4024C94.3236 58.7162 94.44 59.1744 94.44 59.7761V62.6037H94.9225C95.0111 62.6037 95.0556 62.6504 95.0556 62.7441C95.0556 62.7842 95.0444 62.8544 95.0223 62.9547L95.0057 63.0349ZM100.731 62.8945L99.9072 63.085C99.8132 63.0249 99.7354 62.9512 99.6743 62.8644L99.7325 61.8818C99.5886 62.2628 99.3806 62.5666 99.1086 62.7943C98.837 63.0214 98.5375 63.1352 98.2101 63.1352C97.8832 63.1352 97.5945 63.0279 97.345 62.8143C97.0954 62.5937 96.8987 62.2929 96.7543 61.9119C96.6158 61.5238 96.5464 61.0796 96.5464 60.5783C96.5464 60.0433 96.6271 59.5785 96.7876 59.1845C96.9486 58.7834 97.1761 58.4725 97.4698 58.2519C97.7638 58.0313 98.1078 57.921 98.5013 57.921C98.9339 57.921 99.3249 58.0945 99.6743 58.4425V56.788H99.0004C98.9838 56.7409 98.9755 56.6942 98.9755 56.6476C98.9755 56.5874 98.9921 56.5238 99.0254 56.4571L99.8905 56.2666C99.985 56.3267 100.063 56.3999 100.123 56.4872V62.5636H100.756C100.772 62.6103 100.781 62.6569 100.781 62.704C100.781 62.7642 100.764 62.8273 100.731 62.8945ZM99.6743 60.6886V58.9538C99.3028 58.5658 98.9118 58.3723 98.5013 58.3723C98.0467 58.3723 97.686 58.5693 97.4198 58.9639C97.1536 59.3579 97.0205 59.8964 97.0205 60.5783C97.0205 60.9924 97.0734 61.3604 97.1786 61.6812C97.2842 61.9951 97.4282 62.2428 97.6112 62.4232C97.7942 62.6037 98.008 62.694 98.2517 62.694C98.5071 62.694 98.7425 62.6037 98.9588 62.4232C99.1751 62.2357 99.3473 61.9921 99.4746 61.6913C99.6077 61.3834 99.6743 61.0495 99.6743 60.6886ZM108.283 59.6056L108.092 58.5427C107.854 58.4289 107.579 58.3723 107.269 58.3723C106.98 58.3723 106.728 58.4655 106.512 58.653C106.295 58.8335 106.126 59.0842 106.004 59.4051C105.882 59.7259 105.821 60.1 105.821 60.5281C105.821 61.1829 105.96 61.7013 106.237 62.0823C106.514 62.4634 106.886 62.6539 107.352 62.6539C107.546 62.6539 107.748 62.6268 107.959 62.5737C108.17 62.52 108.347 62.4463 108.491 62.3531C108.53 62.4062 108.561 62.4664 108.583 62.5335C108.605 62.5937 108.622 62.6569 108.633 62.7241C108.433 62.8509 108.217 62.9512 107.984 63.0249C107.751 63.0981 107.515 63.1352 107.277 63.1352C106.889 63.1352 106.55 63.0279 106.262 62.8143C105.974 62.5937 105.749 62.2894 105.588 61.9018C105.427 61.5073 105.347 61.0495 105.347 60.5281C105.347 60.0067 105.427 59.552 105.588 59.1644C105.749 58.7699 105.971 58.4655 106.254 58.2519C106.542 58.0313 106.88 57.921 107.269 57.921C107.457 57.921 107.657 57.9476 107.868 58.0013C108.078 58.0479 108.253 58.1116 108.392 58.1918C108.453 58.2785 108.505 58.3788 108.55 58.4926L108.566 59.6357C108.522 59.6558 108.48 59.6658 108.442 59.6658C108.386 59.6658 108.333 59.6457 108.283 59.6056ZM112.124 62.694C112.412 62.694 112.665 62.6037 112.881 62.4232C113.103 62.2428 113.272 61.9886 113.388 61.6612C113.51 61.3333 113.571 60.9558 113.571 60.5281C113.571 60.1 113.51 59.7224 113.388 59.395C113.272 59.0672 113.103 58.8135 112.881 58.633C112.665 58.4525 112.412 58.3622 112.124 58.3622C111.835 58.3622 111.58 58.4525 111.359 58.633C111.142 58.8135 110.973 59.0672 110.851 59.395C110.735 59.7224 110.676 60.1 110.676 60.5281C110.676 60.9558 110.735 61.3333 110.851 61.6612C110.973 61.9886 111.142 62.2428 111.359 62.4232C111.575 62.6037 111.83 62.694 112.124 62.694ZM112.124 63.1352C111.735 63.1352 111.397 63.0279 111.109 62.8143C110.826 62.5937 110.604 62.2894 110.443 61.9018C110.282 61.5073 110.202 61.0495 110.202 60.5281C110.202 60.0067 110.282 59.552 110.443 59.1644C110.604 58.7699 110.826 58.4655 111.109 58.2519C111.397 58.0313 111.735 57.921 112.124 57.921C112.512 57.921 112.848 58.0313 113.13 58.2519C113.419 58.4655 113.643 58.7699 113.804 59.1644C113.965 59.552 114.046 60.0067 114.046 60.5281C114.046 61.0495 113.965 61.5073 113.804 61.9018C113.643 62.2894 113.419 62.5937 113.13 62.8143C112.848 63.0279 112.512 63.1352 112.124 63.1352ZM122.347 63.0349H120.741C120.724 62.9813 120.716 62.9346 120.716 62.8945C120.716 62.8409 120.733 62.7772 120.766 62.704L121.332 62.6238V59.7761C121.332 58.8335 121.054 58.3622 120.5 58.3622C120.261 58.3622 120.048 58.449 119.859 58.623C119.67 58.7899 119.521 59.027 119.41 59.3349C119.304 59.6357 119.252 59.9796 119.252 60.3677V62.6037H119.734C119.823 62.6037 119.867 62.6504 119.867 62.7441C119.867 62.7842 119.856 62.8544 119.834 62.9547L119.818 63.0349H118.212C118.195 62.9813 118.187 62.9346 118.187 62.8945C118.187 62.8409 118.204 62.7772 118.237 62.704L118.803 62.6238V59.7761C118.803 58.8335 118.525 58.3622 117.971 58.3622C117.732 58.3622 117.519 58.449 117.33 58.623C117.141 58.7899 116.992 59.027 116.881 59.3349C116.775 59.6357 116.723 59.9796 116.723 60.3677V62.6037H117.205C117.294 62.6037 117.339 62.6504 117.339 62.7441C117.339 62.7842 117.327 62.8544 117.305 62.9547L117.289 63.0349H115.683C115.666 62.9813 115.658 62.9346 115.658 62.8945C115.658 62.8409 115.675 62.7772 115.708 62.704L116.274 62.6238V58.4926H115.642C115.625 58.4455 115.617 58.3988 115.617 58.3522C115.617 58.2921 115.633 58.2284 115.666 58.1617L116.49 57.9712C116.584 58.0313 116.662 58.1045 116.723 58.1918L116.673 59.0341C116.967 58.2921 117.419 57.921 118.029 57.921C118.672 57.921 119.041 58.3151 119.135 59.1043C119.44 58.3151 119.912 57.921 120.55 57.921C120.949 57.921 121.254 58.0815 121.465 58.4024C121.675 58.7162 121.781 59.1744 121.781 59.7761V62.6037H122.263C122.352 62.6037 122.396 62.6504 122.396 62.7441C122.396 62.7842 122.385 62.8544 122.363 62.9547L122.347 63.0349ZM125.832 63.0349H123.893C123.877 62.9813 123.868 62.9346 123.868 62.8945C123.868 62.8409 123.885 62.7772 123.918 62.704L124.484 62.6238V58.4625H123.852C123.835 58.4089 123.827 58.3623 123.827 58.3221C123.827 58.255 123.844 58.1883 123.877 58.1216L124.484 58.0313V57.8208C124.484 57.3395 124.601 56.9514 124.833 56.6576C125.066 56.3633 125.391 56.2164 125.807 56.2164C126.112 56.2164 126.394 56.2766 126.655 56.3969C126.644 56.5438 126.614 56.6707 126.564 56.778C126.464 56.7509 126.353 56.7308 126.231 56.7178C126.109 56.6977 125.998 56.6877 125.898 56.6877C125.255 56.6877 124.933 57.0652 124.933 57.8208V58.0213H126.081C126.17 58.0213 126.214 58.0679 126.214 58.1617C126.214 58.2018 126.203 58.272 126.181 58.3723L126.164 58.4625H124.933V62.6037H125.749C125.837 62.6037 125.882 62.6504 125.882 62.7441C125.882 62.7842 125.87 62.8544 125.848 62.9547L125.832 63.0349ZM129.484 62.694C129.772 62.694 130.024 62.6037 130.241 62.4232C130.463 62.2428 130.632 61.9886 130.748 61.6612C130.87 61.3333 130.931 60.9558 130.931 60.5281C130.931 60.1 130.87 59.7224 130.748 59.395C130.632 59.0672 130.463 58.8135 130.241 58.633C130.024 58.4525 129.772 58.3622 129.484 58.3622C129.195 58.3622 128.94 58.4525 128.718 58.633C128.502 58.8135 128.333 59.0672 128.211 59.395C128.094 59.7224 128.036 60.1 128.036 60.5281C128.036 60.9558 128.094 61.3333 128.211 61.6612C128.333 61.9886 128.502 62.2428 128.718 62.4232C128.935 62.6037 129.19 62.694 129.484 62.694ZM129.484 63.1352C129.096 63.1352 128.757 63.0279 128.469 62.8143C128.186 62.5937 127.964 62.2894 127.803 61.9018C127.643 61.5073 127.562 61.0495 127.562 60.5281C127.562 60.0067 127.643 59.552 127.803 59.1644C127.964 58.7699 128.186 58.4655 128.469 58.2519C128.757 58.0313 129.096 57.921 129.484 57.921C129.872 57.921 130.207 58.0313 130.49 58.2519C130.779 58.4655 131.004 58.7699 131.164 59.1644C131.325 59.552 131.405 60.0067 131.405 60.5281C131.405 61.0495 131.325 61.5073 131.164 61.9018C131.004 62.2894 130.779 62.5937 130.49 62.8143C130.207 63.0279 129.872 63.1352 129.484 63.1352ZM134.981 63.0349H133.043C133.026 62.9813 133.018 62.9346 133.018 62.8945C133.018 62.8409 133.035 62.7772 133.068 62.704L133.634 62.6238V58.4926H133.001C132.985 58.4455 132.976 58.3988 132.976 58.3522C132.976 58.2921 132.993 58.2284 133.026 58.1617L133.85 57.9712C133.944 58.0313 134.022 58.1045 134.083 58.1918L133.975 59.4151C134.124 58.9739 134.332 58.623 134.599 58.3622C134.865 58.0945 135.156 57.9612 135.472 57.9612C135.533 57.9612 135.603 57.9677 135.68 57.9812C135.763 57.9877 135.838 58.0013 135.905 58.0213C135.966 58.1081 136.019 58.2083 136.063 58.3221L136.079 59.4151C136.041 59.4352 135.999 59.4452 135.955 59.4452C135.899 59.4452 135.846 59.4251 135.796 59.385L135.613 58.4124C135.591 58.4054 135.569 58.4024 135.547 58.4024C135.53 58.4024 135.514 58.4024 135.497 58.4024C135.259 58.4024 135.031 58.5026 134.815 58.7032C134.599 58.8967 134.421 59.1544 134.282 59.4753C134.149 59.7891 134.083 60.12 134.083 60.468V62.6037H134.898C134.987 62.6037 135.031 62.6504 135.031 62.7441C135.031 62.7842 135.02 62.8544 134.998 62.9547L134.981 63.0349ZM138.062 61.5509V58.4625H137.429C137.413 58.4089 137.405 58.3623 137.405 58.3221C137.405 58.255 137.421 58.1883 137.454 58.1216L138.062 58.0313L138.195 56.9785C138.239 56.965 138.292 56.9584 138.353 56.9584C138.392 56.9584 138.444 56.965 138.511 56.9785V58.0213H139.659C139.748 58.0213 139.792 58.0679 139.792 58.1617C139.792 58.2018 139.781 58.272 139.759 58.3723L139.742 58.4625H138.511V61.3504C138.511 61.6642 138.525 61.9184 138.553 62.1124C138.586 62.2994 138.65 62.4363 138.744 62.5235C138.844 62.6103 138.996 62.6539 139.201 62.6539C139.301 62.6539 139.412 62.6438 139.534 62.6238C139.662 62.6037 139.787 62.5737 139.908 62.5335C139.958 62.6403 139.989 62.7672 140 62.9146C139.884 62.9813 139.742 63.0349 139.576 63.075C139.409 63.1151 139.243 63.1352 139.077 63.1352C138.75 63.1352 138.497 63.0214 138.32 62.7943C138.148 62.5666 138.062 62.1525 138.062 61.5509Z" fill="black"/>
<path d="M31.3578 15.8767C31.3578 27.142 24.4193 30.7653 16.5126 30.7653H11.9945C11.0801 30.7653 10.3809 31.6217 10.3809 32.7416V44.9292C10.3809 45.7856 9.78923 46.5762 9.03622 46.5762H1.34467C0.699231 46.5762 0 45.7197 0 44.9292V6.39022C0 3.82096 1.18331 1.91048 3.06586 0.988178C3.60373 0.790542 4.1416 0.658785 4.67947 0.658785H16.5126C24.9572 0.658785 31.3578 4.9409 31.3578 15.8767ZM20.9231 15.8109C20.9231 12.0558 19.3095 10.0794 16.2437 10.0794H7.15367C7.42261 10.0794 7.74533 10.1453 8.12184 10.2771C8.49835 10.4747 8.82107 10.6723 9.14379 11.0017C9.78923 11.7923 10.2195 12.5169 10.2195 13.7027V19.3683C10.2195 19.9612 10.3809 20.4882 10.7574 20.8176C11.0801 21.2129 11.4566 21.4105 11.8869 21.4105H16.2437C19.1482 21.4105 20.9231 19.4342 20.9231 15.8109ZM35.9755 44.9951V6.4561C35.9755 3.22805 38.0194 0.724667 40.655 0.724667H62.6001C63.2993 0.724667 63.9985 1.58109 63.9985 2.43751V8.95949C63.9985 9.42064 63.8372 9.81591 63.5683 10.0794C63.2993 10.4088 62.9766 10.5406 62.6001 10.5406H42.6989C44.3125 10.5406 45.6572 12.1217 45.6572 14.098V16.8649C45.6572 18.0507 46.4102 18.9072 47.3246 18.9072H58.9964C59.9107 18.9072 60.3948 19.5001 60.3948 20.62V26.5491C60.3948 27.669 59.9107 28.2619 58.9964 28.2619H42.6989C44.2049 28.2619 45.6572 29.7771 45.6572 31.6876V34.7839C45.6572 35.245 45.8185 35.7062 46.1413 36.1673C46.4102 36.6285 46.8405 36.8261 47.3246 36.8261H63.0304C63.891 36.8261 64.4288 37.4849 64.4288 38.539V44.9951C64.4288 45.9174 63.7834 46.642 63.0304 46.642H37.3202C36.5134 46.642 35.9755 45.9832 35.9755 44.9951ZM102.112 46.2468C101.897 46.5103 101.628 46.642 101.305 46.642H93.7751C92.7532 46.642 92.0001 46.0491 91.5698 44.8633L86.1374 31.6876C85.8146 30.9629 85.3306 30.6335 84.6851 30.6335H77.5852C79.145 30.6335 80.5435 32.1487 80.5435 34.1251V44.9951C80.5435 45.5221 80.4359 45.9174 80.167 46.1809C79.8981 46.5103 79.5753 46.642 79.1451 46.642H71.83C71.0232 46.642 70.4853 45.9832 70.4853 44.9951V6.4561C70.4853 3.29393 72.583 0.724667 75.1648 0.724667H86.5677C94.7433 0.724667 101.574 5.00678 101.574 15.745C101.574 21.2129 99.853 25.3633 95.8728 27.9984C95.6039 28.2619 95.4425 28.5254 95.4425 28.8548C95.4425 29.1842 95.4963 29.3818 95.5501 29.5795L102.273 44.5339C102.381 44.7974 102.435 45.0609 102.435 45.2586C102.435 45.588 102.327 45.9174 102.112 46.2468ZM91.1933 15.6791C91.1933 13.9004 90.763 12.5169 89.9562 11.5288C89.0956 10.6065 87.9661 10.1453 86.5139 10.1453H77.2625C78.8223 10.1453 80.167 11.7923 80.167 13.7027V18.973C80.167 20.093 80.92 21.0153 81.8344 21.0153H86.5139C89.3646 21.0153 91.1933 19.3024 91.1933 15.6791ZM123.218 47.4326C113.644 47.4326 106.813 41.8988 106.491 29.5136C106.437 28.2619 106.437 26.4173 106.437 23.848C106.437 21.2788 106.437 19.3683 106.491 18.1166C106.813 5.8632 113.698 0 123.218 0C132.739 0 139.57 5.8632 139.892 18.1166C139.946 20.6859 140 22.5963 140 23.848C140 30.7653 140 37.9461 135.267 42.887C132.308 45.9174 128.328 47.4326 123.218 47.4326ZM123.218 37.5508C127.468 37.5508 129.35 33.9933 129.458 29.1183C129.512 26.5491 129.565 24.7703 129.565 23.6504C129.565 22.5305 129.512 20.7517 129.458 18.3142C129.35 13.3733 127.521 9.88179 123.218 9.88179C118.862 9.88179 117.033 13.3075 116.925 18.3142C116.872 19.5659 116.872 21.3447 116.872 23.6504C116.872 26.022 116.872 27.8666 116.925 29.1183C117.033 34.0592 118.969 37.5508 123.218 37.5508Z" fill="black"/>
</svg>
