<svg width="1024" height="80" viewBox="0 0 1024 80" fill="none" xmlns="http://www.w3.org/2000/svg">
<g clip-path="url(#clip0_1686_360)">
<path d="M0 0V80H1024V0H557.91C554.407 0.399139 550.536 1.43593 546.486 3.9778C544.504 5.22176 543.31 7.42485 542.646 9.75006C540.009 18.9765 534.99 24.6904 529.456 28.1815C524.591 31.4686 518.804 33.375 512.593 33.375C512.401 33.375 512.206 33.3735 512.006 33.3704C511.84 33.3678 511.671 33.3641 511.5 33.3592C511.123 33.3701 510.758 33.375 510.407 33.375C504.196 33.375 498.409 31.4686 493.544 28.1815C488.01 24.6905 482.991 18.9765 480.355 9.75006C479.69 7.42485 478.496 5.22176 476.514 3.9778C472.464 1.43593 468.593 0.399139 465.09 0H0Z" fill="#1F1F21"/>
</g>
<defs>
<clipPath id="clip0_1686_360">
<rect width="1024" height="80" fill="white"/>
</clipPath>
</defs>
</svg>
