<svg width="50" height="50" viewBox="0 0 50 50" fill="none" xmlns="http://www.w3.org/2000/svg">
<circle cx="25" cy="25" r="25" fill="white"/>
<path d="M28.6887 37.7463C28.9948 37.3703 29.1667 36.8605 29.1667 36.3289C29.1667 35.7973 28.9948 35.2875 28.6887 34.9115L20.6075 24.9878L28.6887 15.0641C28.9861 14.686 29.1507 14.1796 29.147 13.6539C29.1433 13.1283 28.9716 12.6255 28.6689 12.2538C28.3662 11.8821 27.9567 11.6712 27.5286 11.6667C27.1006 11.6621 26.6882 11.8642 26.3803 12.2294L17.1447 23.5704C16.8387 23.9464 16.6667 24.4562 16.6667 24.9878C16.6667 25.5194 16.8387 26.0292 17.1447 26.4052L26.3803 37.7463C26.6864 38.1221 27.1016 38.3333 27.5345 38.3333C27.9674 38.3333 28.3826 38.1221 28.6887 37.7463Z" fill="black"/>
</svg>
