<svg width="1199" height="1200" viewBox="0 0 1199 1200" fill="none" xmlns="http://www.w3.org/2000/svg">
<path d="M593.667 1.8667C593 2.53337 588.867 3.6 584.6 4C576.2 5.06667 561 11.4667 554.467 16.8C552.2 18.6667 547.533 22.4 543.933 25.3334C540.467 28.2667 533.667 33.4667 528.733 36.9333C523.8 40.4 518.333 44.6667 516.467 46.4C514.6 48.1334 511.533 50.4 509.667 51.3334C507.8 52.2667 505 54.6667 503.4 56.5333C501.667 58.4 499.533 60 498.6 60C497.667 60 494.867 62.1334 492.333 64.6667C489.8 67.2001 487.133 69.3334 486.2 69.3334C485.4 69.3334 483.933 70.1334 483.133 71.2001C481 73.8667 465.133 81.3334 461.8 81.3334C460.333 81.3334 457.533 82.0001 455.533 82.6667C449.4 85.0667 439 85.2 425 83.3334C417.667 82.2667 406.333 80.8 399.667 80C393.133 79.2 384.733 78 381 77.3334C377.4 76.6667 370.733 75.7334 366.333 75.3334C361.933 74.9334 355.4 74.1334 351.933 73.6001C336.467 70.8001 306.2 75.3334 302.6 80.9333C302.067 81.8667 300.867 82.6667 299.933 82.6667C296.2 82.8001 278.333 99.7334 274.867 106.4C273.933 108.4 272.467 110.933 271.667 112C270.733 113.067 268.733 117.6 267 122C265.267 126.4 263.4 130.533 262.733 131.333C262.2 132 261.667 133.467 261.667 134.533C261.667 135.467 260.2 139.467 258.467 143.2C256.733 146.933 253 155.733 250.333 162.667C243.933 178.933 241.4 184.667 234.2 199.467C222.867 222.933 209.267 232.667 161.667 251.2C154.733 254 146.2 257.6 142.733 259.467C139.133 261.2 135.533 262.667 134.6 262.667C133.667 262.667 129.667 264.133 125.8 266C121.933 267.867 117 269.733 114.867 270.267C112.733 270.667 111 271.6 111 272.133C111 272.8 109.667 274 108.067 274.533C101.533 277.2 86.3333 291.6 82.8667 298.4C81.9333 300.4 80.4667 302.933 79.5333 304C78.7333 305.067 76.7333 309.6 75.1333 314.133C72.8667 320.533 72.3333 325.6 72.2 338.8C72.0667 348.4 72.6 356.933 73.5333 359.067C74.3333 361.2 75 366.667 75 371.333C75 376 75.5333 380.133 76.2 380.533C76.7333 380.933 77.6667 385.6 78.0667 390.933C79.1333 402.533 81 418.933 82.7333 430C84.0667 439.467 83.5333 453.733 81.6667 457.333C81 458.667 80.3333 461.067 80.3333 462.667C80.3333 466.133 72.8667 481.867 70.2 484.133C69.1333 484.933 68.3333 486.267 68.3333 487.067C68.3333 487.733 66.3333 490.667 64.0667 493.467C55.1333 504.133 51.4 508.8 48.3333 513.333C46.6 515.867 44.6 518.533 43.8 519.333C43 520 39.9333 523.867 37.1333 527.867C34.3333 531.867 31.5333 535.733 30.8667 536.533C26.3333 542.4 18.6 552 15.6667 555.467C10.4667 562 4.2 576.667 2.86666 585.067C2.33333 589.2 1.26666 595.067 0.599996 598.133C-0.200004 602.133 -0.0666708 604.267 1.26666 606C2.2 607.467 3 611.2 3 614.4C3 621.067 10.2 637.733 15.5333 643.6C17.4 645.6 19 647.733 19 648.4C19 648.933 21.2667 651.867 24.0667 655.067C26.8667 658.133 31.9333 664.533 35.4 669.333C38.7333 674.133 43 679.6 44.8667 681.6C46.8667 683.6 48.3333 685.733 48.3333 686.4C48.3333 687.067 50.6 690.267 53.4 693.467C62.4667 704.133 68.3333 711.733 68.3333 713.067C68.3333 713.733 69.4 715.2 70.6 716.133C73.9333 718.933 80.0667 733.333 82.0667 743.333C84.4667 755.2 84.2 761.333 79 797.733C78.2 802.667 77.6667 809.333 77.6667 812.4C77.6667 815.6 77.1333 818.667 76.4667 819.333C75.8 820.133 74.8667 825.2 74.4667 830.667C74.2 836.133 73.1333 844.533 72.3333 849.333C71.5333 854.133 71.2667 862.4 71.6667 867.867C72.3333 877.333 77.1333 894.8 79.4 895.733C79.9333 896 81.2667 898.133 82.2 900.4C85.1333 907.2 101.133 922.667 108.067 925.467C109.667 926 111 927.333 111 928.133C111 928.933 111.8 929.333 112.867 928.933C113.8 928.533 115.133 928.667 115.8 929.333C116.467 930 121.8 932.267 127.667 934.667C133.533 936.933 140.733 939.867 143.667 941.333C146.6 942.667 151.933 944.8 155.4 946.133C158.867 947.333 162.067 948.933 162.467 949.467C162.867 950.133 164.067 950.667 165.267 950.667C166.467 950.667 170.2 951.867 173.533 953.467C176.867 954.933 180.867 956.667 182.333 957.2C183.8 957.733 190.733 961.067 197.8 964.4C215.267 972.933 225.933 983.467 234.2 1000.4C241.533 1015.33 246.333 1026.27 247.533 1030.67C248.067 1032.53 249.267 1035.73 250.333 1038C251.267 1040.13 252.6 1043.47 253.4 1045.33C254.067 1047.2 256.2 1052 258.067 1056C259.8 1060 262.067 1065.47 263 1068C263.933 1070.53 265.133 1073.2 265.667 1074C266.2 1074.67 267 1076.93 267.533 1078.93C267.933 1081.07 269 1082.67 269.667 1082.67C270.467 1082.67 271 1083.6 271 1084.67C271 1086.53 275 1094.27 278.067 1098.27C281.933 1103.47 294.333 1114.67 298.6 1116.93C301.133 1118.27 305.133 1120.4 307.533 1121.6C309.8 1122.8 312.733 1123.87 314.067 1124C315.4 1124 317.8 1124.67 319.267 1125.47C322.867 1127.47 353 1127.33 358.067 1125.47C360.2 1124.67 365.667 1124 370.333 1124C375 1124 379.267 1123.47 379.667 1122.67C380.067 1122 383.267 1121.33 386.6 1121.33C389.933 1121.33 396.333 1120.8 400.867 1120C412.067 1118.27 430.333 1115.87 437.533 1115.2C450.067 1114 477.667 1122.27 483.133 1128.8C483.933 1129.87 485.267 1130.67 485.933 1130.67C486.6 1130.67 491.4 1134.13 496.6 1138.27C501.667 1142.53 507.4 1146.8 509.133 1147.73C510.867 1148.67 514.067 1151.07 516.067 1152.93C518.067 1154.8 525.133 1160.4 531.667 1165.2C538.333 1170.13 544.467 1175.2 545.533 1176.4C546.467 1177.6 547.933 1178.67 548.6 1178.67C549.267 1178.67 552.467 1180.8 555.533 1183.33C563.533 1189.87 577.667 1196 584.733 1196C587.8 1196 591.533 1196.8 593 1197.73C596.067 1199.73 601.4 1199.87 604.333 1198C605.4 1197.33 609.8 1196.4 613.933 1195.87C618.067 1195.33 625.533 1193.07 630.467 1190.8C639.133 1186.67 642.867 1184.27 654.2 1174.4C657.4 1171.6 660.6 1169.33 661.267 1169.33C661.933 1169.33 663.667 1168 665.133 1166.53C666.467 1164.93 670.067 1162.13 672.867 1160.4C675.667 1158.53 679.267 1155.73 680.867 1154C682.467 1152.4 684.467 1150.8 685.267 1150.53C687.4 1149.87 697.533 1142.27 705 1135.6C708.067 1132.93 711.267 1130.67 711.933 1130.67C712.733 1130.67 714.2 1129.73 715.133 1128.53C717.8 1125.33 732.333 1118.8 740.467 1117.2C752.333 1114.93 757.8 1114.67 767.667 1116.13C772.867 1116.93 782.067 1118.13 788.333 1118.8C794.6 1119.6 804.467 1120.8 810.333 1121.47C816.2 1122.27 825.267 1123.33 830.467 1123.87C835.533 1124.4 840.467 1125.2 841.267 1125.73C843.8 1127.33 876.333 1127.2 878.067 1125.47C878.867 1124.67 881 1124 882.733 1124C892.333 1124 918.067 1104.4 923.533 1092.8C924.733 1090.13 926.333 1088 927 1088C927.8 1088 928.333 1087.2 928.333 1086.27C928.333 1084.4 935.267 1066.4 939.667 1056.67C941.4 1052.93 945 1044.27 947.667 1037.33C953.267 1022.8 955 1018.8 963.533 1000.93C971.8 984 982.333 973.2 999.4 964.667C1005.93 961.333 1012.07 958.667 1013 958.667C1014.07 958.667 1016.87 957.467 1019.27 956.133C1021.67 954.8 1029.4 951.333 1036.33 948.667C1043.27 946 1051.13 942.8 1053.67 941.733C1056.2 940.667 1059.53 939.333 1061 938.667C1062.47 938.133 1066.33 936.4 1069.67 934.933C1073 933.6 1078.07 931.467 1081 930.533C1083.93 929.467 1086.87 927.867 1087.4 927.067C1087.93 926.133 1089.13 925.333 1090.07 925.333C1094.2 925.333 1112.2 907.867 1115.67 900.533C1116.87 898 1118.2 896 1118.73 896C1119.27 896 1120.47 893.2 1121.4 889.6C1122.47 886.133 1123.8 882.133 1124.6 880.8C1126.33 877.6 1126.33 846 1124.6 841.333C1123.93 839.467 1123.27 834.667 1123.13 830.667C1123 826.667 1122.33 820.667 1121.67 817.333C1121 814 1119.8 805.867 1119 799.333C1118.2 792.667 1117 783.067 1116.33 778C1113.27 755.733 1113.27 756 1117.53 737.333C1119 730.933 1124.87 718.267 1127.53 716.133C1128.73 715.2 1129.67 713.6 1129.67 712.8C1129.67 711.867 1131.53 709.467 1133.8 707.2C1136.07 705.067 1138.87 701.467 1139.93 699.333C1141.13 697.067 1142.73 694.933 1143.67 694.4C1144.47 693.867 1147 690.933 1149.13 687.733C1151.27 684.533 1154.07 680.8 1155.27 679.333C1157.93 676.267 1165.67 666 1167.67 662.8C1168.47 661.6 1171.13 658.133 1173.67 655.067C1184.07 642.533 1185.8 640 1189.8 631.6C1192.07 626.8 1194.33 619.2 1195 614.667C1195.67 610.133 1196.73 605.733 1197.53 604.8C1198.47 603.733 1198.47 601.467 1197.53 598C1196.73 595.067 1195.67 589.2 1195 585.067C1193.67 575.2 1187.8 562.667 1179.53 552.267C1175.93 547.6 1171.53 541.867 1169.67 539.467C1167.8 537.067 1163.67 531.6 1160.33 527.333C1157 523.067 1152.6 517.067 1150.33 514C1144.73 506.133 1140.47 500.8 1134.73 494.133C1131.93 490.933 1129.67 487.733 1129.67 487.067C1129.67 486.267 1128.87 484.933 1127.8 484.133C1125 481.733 1119.13 469.2 1116.87 460.4C1113.67 448.267 1114.33 428.533 1119.13 401.467C1119.8 397.467 1120.33 391.333 1120.33 387.867C1120.33 384.4 1121 381.067 1121.67 380.667C1122.47 380.267 1123 376 1123 371.333C1123 366.667 1123.53 361.333 1124.33 359.333C1125 357.467 1125.8 348.533 1125.93 339.6C1126.07 325.733 1125.67 322 1123 314.667C1121.4 309.867 1119.27 305.067 1118.47 304C1117.53 302.933 1116.07 300.267 1115 298.133C1112.2 292.533 1097.53 278.133 1091.8 275.467C1089.13 274.267 1087 272.667 1087 272C1087 271.2 1085.93 270.667 1084.73 270.667C1083.4 270.667 1078.47 268.8 1073.93 266.667C1069.27 264.4 1064.87 262.667 1064.2 262.667C1063.53 262.667 1059.93 261.2 1056.07 259.333C1052.33 257.467 1048.6 256 1048.07 256C1047.4 256 1042.87 254 1037.93 251.733C1033 249.333 1028.47 247.333 1027.67 247.2C1027 247.2 1024.87 246.4 1023 245.733C1021.13 244.933 1014.73 242.133 1008.6 239.6C1002.6 237.067 995.133 233.467 991.933 231.6C984.467 227.2 969.533 211.467 965.8 204.133C961.933 196.667 943 152.133 943 150.533C943 150 941.533 146.8 939.667 143.467C937.8 140.133 936.333 136.667 936.333 135.6C936.333 134.667 935.267 131.467 933.8 128.533C932.467 125.733 930.467 120.933 929.533 118C928.467 115.067 926.867 112.133 926.067 111.6C925.133 111.067 924.333 109.867 924.333 109.067C924.333 104.533 901.133 81.3334 896.6 81.3334C895.8 81.3334 895 80.9334 894.733 80.2667C894.6 79.7334 890.2 77.8668 885 76.1334C877.133 73.4668 873.267 72.9334 860.333 73.0668C851.933 73.0668 842.333 73.7333 839 74.5333C835.667 75.3333 830.467 76 827.4 76C824.2 76 819.133 76.5334 816.067 77.3334C812.867 78 805.267 79.2 799 79.8667C792.733 80.6667 781.133 82.1334 773 83.3334C765 84.4 756.2 85.0667 753.667 84.6667C740.733 82.8001 732.2 80.5334 725 77.0668C717.133 73.3334 714.867 71.8667 699.667 60C695.533 56.6667 689.533 52.1333 686.467 50C683.4 47.7333 679.8 44.9334 678.333 43.7334C675.533 41.3334 656.2 26.6668 649.267 21.6001C646.867 20.0001 643.533 17.2001 641.667 15.6001C636.467 10.9334 619.667 4 613.533 4C610.6 4 606.867 3.33336 605.267 2.40002C601.667 0.533358 595.267 0.266699 593.667 1.8667ZM844.333 376.4C853.667 379.067 861.667 383.2 870.733 390.267C899.267 412.533 908.2 450.933 892.067 483.6C888.467 490.933 869.4 515.6 852.733 534.533C849.133 538.533 845.4 543.067 844.333 544.667C843.267 546.267 840.067 550.267 837.4 553.467C834.6 556.667 827.533 565.333 821.533 572.667C815.533 580 808.733 588.133 806.467 590.667C804.2 593.333 800.867 597.467 799 599.867C797.133 602.4 795 605.067 794.333 605.867C793.533 606.667 791.533 609.067 789.8 611.333C788.2 613.467 784.867 617.467 782.6 620C780.2 622.533 776.2 627.333 773.667 630.667C768.733 637.067 752.067 657.333 741.933 669.2C738.467 673.2 734.067 678.667 732.2 681.2C730.2 683.867 727.533 687.2 726.2 688.667C724.733 690.133 718.333 697.867 711.8 706C705.133 714 697.933 722.8 695.8 725.467C693.533 728.133 690.2 732.267 688.333 734.667C686.467 736.933 684.067 739.867 683 741.067C681.933 742.133 678.333 746.4 675 750.533C671.667 754.667 668.067 759.2 666.733 760.667C665.533 762.133 658.333 770.8 650.867 780C643.4 789.2 634.467 800 631.133 804C627.667 808 622.6 814.267 619.667 818C616.733 821.6 613 826.133 611.267 828C609.667 829.867 605.8 834.133 602.733 837.733C593.8 848.133 580.6 856.933 569.667 859.733C555.533 863.467 546.2 864.8 540.333 863.6C537 863.067 531.8 862.133 528.733 861.733C525.533 861.333 523 860.533 523 859.867C523 859.2 521.8 858.667 520.333 858.667C517.667 858.667 509.133 854.4 505.533 851.2C504.467 850.133 502.867 849.333 502.067 849.333C500.467 849.333 467.533 816.133 454.333 801.333C450.067 796.533 434.867 780.533 420.467 765.867C406.067 751.067 383.933 728 371.133 714.533C358.333 701.067 341.533 683.333 333.8 675.333C326.067 667.2 317.4 658 314.733 654.667C308.867 647.467 301.667 634.133 301.667 630.4C301.667 629.067 300.867 626.267 299.8 624.267C297.4 619.6 297.933 598.133 300.867 587.6C304.467 573.867 309.8 564.933 321.533 552.667C325.667 548.4 341.933 537.733 346.067 536.667C347.667 536.133 350.2 535.333 351.667 534.667C360.467 530.8 388.467 531.067 397.667 534.933C406.333 538.667 414.867 543.467 420.333 547.867C426.867 553.067 469.4 596.667 531.4 662L541.533 672.533L544.467 670C546.067 668.533 549.667 664.133 552.6 660.267C555.533 656.267 559.533 651.467 561.533 649.6C563.4 647.6 567.533 642.667 570.6 638.667C575.667 632 589.533 614.8 596.467 606.8C597.933 605.067 602.867 599.067 607.267 593.467C611.8 587.867 616.067 582.667 616.867 582C617.667 581.2 619.933 578.533 621.933 575.733C623.933 573.067 626.467 570.133 627.4 569.067C628.333 568.133 635.667 559.2 643.667 549.333C651.667 539.467 659 530.667 659.8 530C660.6 529.2 662.067 527.467 663.133 525.867C664.2 524.267 667.8 519.867 671.267 515.867C677.533 508.667 691.667 491.467 700.067 480.933C702.467 477.867 707.133 472.267 710.333 468.533C713.533 464.8 718.733 458.4 721.933 454.533C725 450.533 728.2 446.667 729 445.733C729.667 444.933 737.533 435.333 746.333 424.533C769.267 396.4 777.667 388.133 789.667 382.4C795.133 379.867 801.533 377.067 803.667 376.267C809.4 374.4 837.267 374.533 844.333 376.4Z" fill="#2C93F3"/>
</svg>
