<svg width="18" height="18" viewBox="0 0 18 18" fill="none" xmlns="http://www.w3.org/2000/svg">
<path d="M1 2.42222C1 1.9244 1 1.67548 1.09688 1.48534C1.18211 1.31809 1.31809 1.18211 1.48534 1.09688C1.67548 1 1.9244 1 2.42222 1H15.5778C16.0756 1 16.3245 1 16.5147 1.09688C16.682 1.18211 16.8179 1.31809 16.9031 1.48534C17 1.67548 17 1.9244 17 2.42222V3.96645C17 4.18387 17 4.29257 16.9755 4.39487C16.9537 4.48557 16.9178 4.57228 16.869 4.6518C16.814 4.74151 16.7372 4.81838 16.5835 4.97212L11.1943 10.3612C11.0406 10.5149 10.9637 10.5918 10.9088 10.6815C10.86 10.7611 10.8241 10.8477 10.8023 10.9385C10.7778 11.0408 10.7778 11.1495 10.7778 11.3668V13.4444L7.22222 17V11.3668C7.22222 11.1495 7.22222 11.0408 7.19766 10.9385C7.17588 10.8477 7.13997 10.7611 7.09124 10.6815C7.03627 10.5918 6.9594 10.5149 6.80566 10.3612L1.41656 4.97212C1.26283 4.81838 1.18596 4.74151 1.13099 4.6518C1.08225 4.57228 1.04634 4.48557 1.02456 4.39487C1 4.29257 1 4.18387 1 3.96645V2.42222Z" stroke="black" stroke-width="2" stroke-linecap="round" stroke-linejoin="round"/>
</svg>
