<svg width="44" height="44" viewBox="0 0 44 44" fill="none" xmlns="http://www.w3.org/2000/svg">
<rect x="1" y="1" width="42" height="42" rx="21" fill="#202020" stroke="white" stroke-width="2"/>
<path d="M31.5161 16.9197C31.2058 16.2179 30.7584 15.5819 30.1988 15.0474C29.6389 14.5113 28.9787 14.0852 28.2542 13.7924C27.5029 13.4876 26.6971 13.3316 25.8835 13.3334C24.7422 13.3334 23.6286 13.6387 22.6609 14.2153C22.4294 14.3532 22.2095 14.5047 22.0011 14.6698C21.7928 14.5047 21.5729 14.3532 21.3413 14.2153C20.3736 13.6387 19.2601 13.3334 18.1188 13.3334C17.2969 13.3334 16.5005 13.4872 15.7481 13.7924C15.0212 14.0864 14.366 14.5092 13.8034 15.0474C13.2432 15.5813 12.7956 16.2174 12.4862 16.9197C12.1644 17.65 12 18.4256 12 19.2238C12 19.9768 12.1574 20.7614 12.47 21.5596C12.7316 22.2267 13.1066 22.9186 13.5858 23.6173C14.3452 24.723 15.3893 25.8763 16.6857 27.0453C18.8341 28.9831 20.9617 30.3218 21.052 30.376L21.6006 30.7197C21.8437 30.8713 22.1563 30.8713 22.3993 30.7197L22.948 30.376C23.0383 30.3195 25.1635 28.9831 27.3143 27.0453C28.6107 25.8763 29.6548 24.723 30.4141 23.6173C30.8934 22.9186 31.2707 22.2267 31.53 21.5596C31.8426 20.7614 32 19.9768 32 19.2238C32.0023 18.4256 31.8379 17.65 31.5161 16.9197Z" fill="#FE7575"/>
</svg>
