<svg width="15" height="8" viewBox="0 0 15 8" fill="none" xmlns="http://www.w3.org/2000/svg">
<path d="M14.6698 0.305919C14.4584 0.110039 14.1716 -2.38419e-07 13.8725 -2.38419e-07C13.5735 -2.38419e-07 13.2867 0.110039 13.0753 0.305919L7.49319 5.47795L1.91111 0.305919C1.69843 0.11559 1.41357 0.010275 1.11789 0.0126557C0.822216 0.0150363 0.539376 0.124922 0.330292 0.318647C0.121209 0.512371 0.00261227 0.774434 4.29153e-05 1.04839C-0.00252644 1.32235 0.111138 1.58628 0.316556 1.78334L6.69591 7.69408C6.90739 7.88996 7.19417 8 7.49319 8C7.79222 8 8.079 7.88996 8.29047 7.69408L14.6698 1.78334C14.8812 1.5874 15 1.32169 15 1.04463C15 0.767573 14.8812 0.501858 14.6698 0.305919Z" fill="white"/>
</svg>
