<svg width="54" height="54" viewBox="0 0 54 54" fill="none" xmlns="http://www.w3.org/2000/svg">
<g id="Icon">
<rect id="Rectangle 21" x="1" y="1" width="52" height="52" rx="26" fill="#FDFDFD" stroke="#FDFDFD" stroke-width="2"/>
<path id="Vector" d="M25.7904 36.5361L25.789 36.5348C22.4219 33.463 19.7074 30.981 17.823 28.6615C15.9498 26.3558 15 24.3321 15 22.1935C15 18.6998 17.7028 16 21.15 16C23.1074 16 25.0044 16.922 26.2392 18.3694L27 19.2612L27.7608 18.3694C28.9956 16.922 30.8926 16 32.85 16C36.2972 16 39 18.6998 39 22.1935C39 24.3321 38.0502 26.3558 36.177 28.6615C34.2926 30.981 31.5781 33.463 28.211 36.5348L28.2096 36.5361L27 37.644L25.7904 36.5361Z" fill="white" stroke="black" stroke-width="2"/>
</g>
</svg>
