<svg width="20" height="40" viewBox="0 0 20 40" fill="none" xmlns="http://www.w3.org/2000/svg">
<path d="M19.2352 39.1195C19.7249 38.5556 20 37.7909 20 36.9935C20 36.1961 19.7249 35.4313 19.2352 34.8674L6.30514 19.9818L19.2352 5.0963C19.711 4.52914 19.9743 3.76952 19.9684 2.98105C19.9624 2.19258 19.6877 1.43834 19.2034 0.880781C18.7191 0.323225 18.0639 0.00696666 17.379 0.000115043C16.6941 -0.00673657 16.0343 0.29637 15.5416 0.844152L0.764797 17.8558C0.275098 18.4197 0 19.1844 0 19.9818C0 20.7792 0.275098 21.544 0.764797 22.1079L15.5416 39.1195C16.0315 39.6833 16.6958 40 17.3884 40C18.0811 40 18.7454 39.6833 19.2352 39.1195Z" fill="black"/>
</svg>
