<svg width="13" height="11" viewBox="0 0 13 11" fill="none" xmlns="http://www.w3.org/2000/svg">
<path d="M7.23647 0.29312C7.4106 0.105435 7.64675 0 7.89298 0C8.1392 0 8.37535 0.105435 8.54949 0.29312L12.7281 4.79824C12.9022 4.98598 13 5.24058 13 5.50604C13 5.77151 12.9022 6.02611 12.7281 6.21385L8.54949 10.719C8.37435 10.9013 8.13979 11.0022 7.89632 11C7.65285 10.9977 7.41995 10.8924 7.24778 10.7068C7.07561 10.5212 6.97795 10.2701 6.97584 10.0076C6.97372 9.74507 7.06732 9.49218 7.23647 9.30336L9.75015 6.50718H0.928586C0.682309 6.50718 0.44612 6.40171 0.271976 6.21396C0.0978329 6.02621 0 5.77156 0 5.50604C0 5.24053 0.0978329 4.98588 0.271976 4.79813C0.44612 4.61038 0.682309 4.50491 0.928586 4.50491H9.75015L7.23647 1.70873C7.06238 1.52099 6.96459 1.26639 6.96459 1.00092C6.96459 0.735458 7.06238 0.480861 7.23647 0.29312Z" fill="black"/>
</svg>
