<svg width="11" height="22" viewBox="0 0 11 22" fill="none" xmlns="http://www.w3.org/2000/svg">
<path d="M9.95098 21.1972C10.1958 20.8965 10.3334 20.4886 10.3334 20.0633C10.3334 19.638 10.1958 19.2302 9.95098 18.9294L3.48594 10.9905L9.95098 3.0515C10.1889 2.74902 10.3205 2.34389 10.3176 1.92337C10.3146 1.50285 10.1772 1.10059 9.93507 0.803225C9.69291 0.505863 9.36533 0.337191 9.02289 0.333536C8.68044 0.329884 8.35052 0.491541 8.1042 0.783691L0.715773 9.85655C0.470923 10.1573 0.333374 10.5652 0.333374 10.9905C0.333374 11.4157 0.470923 11.8236 0.715773 12.1244L8.1042 21.1972C8.34912 21.4979 8.68126 21.6668 9.02759 21.6668C9.37391 21.6668 9.70605 21.4979 9.95098 21.1972Z" fill="white"/>
</svg>
