<svg width="13" height="11" viewBox="0 0 13 11" fill="none" xmlns="http://www.w3.org/2000/svg">
<path d="M5.76353 10.7069C5.5894 10.8946 5.35325 11 5.10702 11C4.8608 11 4.62465 10.8946 4.45051 10.7069L0.271877 6.20176C0.0977945 6.01402 0 5.75942 0 5.49396C0 5.22849 0.0977945 4.97389 0.271877 4.78615L4.45051 0.281031C4.62565 0.0986662 4.86021 -0.00224304 5.10368 3.8147e-05C5.34715 0.00231838 5.58005 0.107607 5.75222 0.293226C5.92439 0.478846 6.02205 0.729943 6.02416 0.992438C6.02628 1.25493 5.93268 1.50782 5.76353 1.69664L3.24985 4.49282L12.0714 4.49282C12.3177 4.49282 12.5539 4.59829 12.728 4.78604C12.9022 4.97379 13 5.22844 13 5.49396C13 5.75947 12.9022 6.01412 12.728 6.20187C12.5539 6.38962 12.3177 6.49509 12.0714 6.49509L3.24985 6.49509L5.76353 9.29127C5.93762 9.47901 6.03541 9.73361 6.03541 9.99908C6.03541 10.2645 5.93762 10.5191 5.76353 10.7069Z" fill="black"/>
</svg>
