<svg width="20" height="40" viewBox="0 0 20 40" fill="none" xmlns="http://www.w3.org/2000/svg">
<path d="M0.764799 0.880462C0.275099 1.44439 4.94927e-07 2.20914 4.94927e-07 3.00654C4.94927e-07 3.80393 0.275099 4.56868 0.764799 5.13261L13.6949 20.0182L0.764799 34.9037C0.288977 35.4709 0.0256887 36.2305 0.0316403 37.019C0.0375918 37.8074 0.312307 38.5617 0.796618 39.1192C1.28093 39.6768 1.93609 39.993 2.62098 39.9999C3.30587 40.0067 3.9657 39.7036 4.45836 39.1558L19.2352 22.1442C19.7249 21.5803 20 20.8156 20 20.0182C20 19.2208 19.7249 18.456 19.2352 17.8921L4.45836 0.880462C3.96851 0.316702 3.30422 0 2.61158 0C1.91893 0 1.25465 0.316702 0.764799 0.880462Z" fill="black"/>
</svg>
