<svg width="70" height="47" viewBox="0 0 70 47" fill="none" xmlns="http://www.w3.org/2000/svg">
<mask id="mask0_1399_526" style="mask-type:luminance" maskUnits="userSpaceOnUse" x="0" y="0" width="70" height="47">
<path d="M0.909058 0.818115H69.0909V46.4999H0.909058V0.818115Z" fill="#212121"/>
</mask>
<path fill-rule="evenodd" clip-rule="evenodd" d="M41.6503 17.2275L26.5604 33.6368H39.466L54.5558 17.2275L39.466 0.818115H26.5604L41.6503 17.2275ZM26.5604 15.0031L33.4303 17.2275L26.5604 19.4518V26.6492L22.314 20.8255L15.4441 23.0499L19.6905 17.2275L15.4441 11.4038L22.314 13.6294L26.5604 7.80575V15.0031ZM38.2913 38.5956H44.4102V40.6271H40.3314V41.4401H44.0022V43.2696H40.3314V44.1837H44.4102V46.2164H38.2913V38.5956ZM15.5753 42.4241C15.5753 41.3586 14.7073 40.4937 13.6379 40.4937C12.5672 40.4937 11.7005 41.3586 11.7005 42.4241C11.7005 43.4897 12.5672 44.3546 13.6379 44.3546C14.7073 44.3546 15.5753 43.4897 15.5753 42.4241ZM17.7739 42.4241C17.7739 44.655 15.9184 46.4702 13.6379 46.4702C11.3562 46.4702 9.50065 44.655 9.50065 42.4241C9.50065 40.1933 11.3562 38.3781 13.6379 38.3781C15.9184 38.3781 17.7739 40.1933 17.7739 42.4241ZM61.2698 43.917V43.9403C61.2698 45.5457 59.921 46.4999 58.0044 46.4999C56.6063 46.4999 55.2016 46.0623 54.2323 45.1987L55.4667 43.7486C56.2438 44.3675 57.1455 44.6925 58.0577 44.6925C58.6437 44.6925 59.0258 44.4905 59.0258 44.1539V44.1306C59.0258 43.8056 58.7269 43.6256 57.6562 43.3783C55.9761 42.9964 54.6416 42.5251 54.6416 40.908V40.8847C54.6416 39.4256 55.7812 38.3703 57.6744 38.3703C59.0154 38.3703 60.0432 38.729 60.8995 39.4152L59.6742 40.8562C58.8997 40.4005 58.328 40.1791 57.6302 40.1791C57.1001 40.1791 56.8844 40.4018 56.8844 40.6827V40.706C56.8844 41.0647 57.1949 41.2226 58.2877 41.4699C60.103 41.8622 61.2698 42.4474 61.2698 43.917ZM62.9733 38.5956H69.0909V40.6271H65.0121V41.4401H68.6829V43.2696H65.0121V44.1837H69.0909V46.2164H62.9733V38.5956ZM50.7291 41.0349C50.7291 40.7889 50.5277 40.6271 50.2782 40.6271H48.4786V41.4401H50.2782C50.5277 41.4401 50.7291 41.2783 50.7291 41.0349ZM53.2409 46.2164H50.9422L49.6285 43.5622C49.5766 43.4871 49.4908 43.4729 49.3986 43.4729H48.4786V46.2164H46.4398V38.5956H50.3432C51.6673 38.5956 52.777 39.5796 52.8718 40.8459C52.942 41.7845 52.4703 42.6352 51.6595 43.1052L53.2409 46.2164ZM34.362 38.5956H36.7074L34.2138 46.2164H30.8757L28.3822 38.5956H30.7263L32.4246 44.0089C32.448 44.0827 32.5103 44.0879 32.5441 44.0879C32.5792 44.0879 32.6637 44.0827 32.6637 44.0089V44.0218L34.362 38.5956ZM24.7633 38.5956H26.8034V46.2164H24.471L21.3992 41.949V46.2164H19.3592V38.5956H21.4538L24.7633 42.9006V38.5956ZM3.15571 42.4228C3.15571 43.4806 4.07048 44.3753 5.15288 44.3753C5.73891 44.3753 6.30414 44.1021 6.70176 43.6269L6.84469 43.456L8.66904 44.7054L8.50142 44.91C7.6932 45.9005 6.47306 46.4689 5.15288 46.4689C2.81267 46.4689 0.909058 44.6537 0.909058 42.4228C0.909058 40.192 2.81267 38.3768 5.15288 38.3768C6.48476 38.3768 7.71139 38.953 8.51961 39.9577L8.68333 40.1623L6.86028 41.4117L6.71735 41.2369C6.32363 40.7578 5.74021 40.4717 5.15288 40.4717C4.07048 40.4717 3.15571 41.3651 3.15571 42.4228Z" fill="#1F1F21"/>
</svg>
