<svg width="69" height="26" viewBox="0 0 69 26" fill="none" xmlns="http://www.w3.org/2000/svg">
<path fill-rule="evenodd" clip-rule="evenodd" d="M7.839 25.2623C5.80805 25.1808 4.14527 24.6198 2.84641 23.5766C2.5984 23.3776 2.00608 22.7806 1.80835 22.5281C1.2825 21.8584 0.923697 21.2079 0.684209 20.4847C-0.0512984 18.2598 0.327961 15.3398 1.76659 12.1348C2.99897 9.39187 4.90123 6.6717 8.21826 2.90308C8.70832 2.34818 10.1631 0.727295 10.1725 0.727295C10.1759 0.727295 10.0967 0.865802 9.99695 1.03499C9.13445 2.49457 8.39639 4.21364 7.99412 5.70303C7.3481 8.09096 7.42651 10.1405 8.22167 11.729C8.77138 12.8247 9.71314 13.7733 10.7717 14.2975C12.6262 15.2153 15.3398 15.2907 18.6534 14.5184C18.8827 14.4667 30.1906 11.4344 43.7843 7.78151C57.3754 4.12861 68.4984 1.14106 68.5001 1.14457C68.5035 1.1472 36.921 14.7989 20.5259 21.8812C17.929 23.0024 17.2336 23.2847 16.014 23.7177C12.8938 24.8258 10.0975 25.3535 7.839 25.2623Z" fill="#1F1F21"/>
</svg>
