<svg width="11" height="22" viewBox="0 0 11 22" fill="none" xmlns="http://www.w3.org/2000/svg">
<path d="M1.04902 0.80277C0.804175 1.10353 0.666626 1.5114 0.666626 1.93668C0.666626 2.36196 0.804175 2.76982 1.04902 3.07059L7.51406 11.0095L1.04902 18.9485C0.811114 19.251 0.67947 19.6561 0.682446 20.0766C0.685422 20.4972 0.822779 20.8994 1.06493 21.1968C1.30709 21.4941 1.63467 21.6628 1.97711 21.6665C2.31956 21.6701 2.64948 21.5085 2.8958 21.2163L10.2842 12.1434C10.5291 11.8427 10.6666 11.4348 10.6666 11.0095C10.6666 10.5843 10.5291 10.1764 10.2842 9.87563L2.8958 0.80277C2.65088 0.502099 2.31874 0.333191 1.97241 0.333191C1.62609 0.333191 1.29395 0.502099 1.04902 0.80277Z" fill="white"/>
</svg>
